<svg width="35" height="36" viewBox="0 0 35 36" fill="none" xmlns="http://www.w3.org/2000/svg">
<path d="M17 0C15.22 0 13.4799 0.527841 11.9999 1.51677C10.5198 2.50571 9.36628 3.91131 8.68509 5.55585C8.0039 7.20038 7.82567 9.00998 8.17294 10.7558C8.5202 12.5016 9.37737 14.1053 10.636 15.364C11.8947 16.6226 13.4984 17.4798 15.2442 17.8271C16.99 18.1743 18.7996 17.9961 20.4442 17.3149C22.0887 16.6337 23.4943 15.4802 24.4832 14.0001C25.4722 12.5201 26 10.78 26 9C25.9974 6.61384 25.0484 4.32616 23.3611 2.63889C21.6738 0.951621 19.3862 0.00258081 17 0ZM17 16.5C15.5166 16.5 14.0666 16.0601 12.8332 15.236C11.5999 14.4119 10.6386 13.2406 10.0709 11.8701C9.50325 10.4997 9.35473 8.99168 9.64411 7.53682C9.9335 6.08197 10.6478 4.74559 11.6967 3.6967C12.7456 2.64781 14.082 1.9335 15.5368 1.64411C16.9917 1.35472 18.4997 1.50325 19.8701 2.0709C21.2406 2.63856 22.4119 3.59985 23.236 4.83322C24.0601 6.06659 24.5 7.51664 24.5 9C24.4978 10.9885 23.7069 12.8948 22.3009 14.3009C20.8948 15.7069 18.9885 16.4978 17 16.5Z" fill="white"/>
<path d="M17.0433 6.97751H16.2933C16.0944 6.97751 15.9036 7.05653 15.763 7.19718C15.6223 7.33783 15.5433 7.5286 15.5433 7.72751C15.5433 7.92642 15.6223 8.11719 15.763 8.25784C15.9036 8.39849 16.0944 8.47751 16.2933 8.47751H17.0433V12.9775C17.0433 13.1764 17.1223 13.3672 17.263 13.5078C17.4036 13.6485 17.5944 13.7275 17.7933 13.7275C17.9922 13.7275 18.183 13.6485 18.3236 13.5078C18.4643 13.3672 18.5433 13.1764 18.5433 12.9775V8.47751C18.5433 8.07968 18.3853 7.69815 18.104 7.41685C17.8227 7.13554 17.4411 6.97751 17.0433 6.97751Z" fill="white"/>
<path d="M17 6C17.6213 6 18.125 5.49632 18.125 4.875C18.125 4.25368 17.6213 3.75 17 3.75C16.3787 3.75 15.875 4.25368 15.875 4.875C15.875 5.49632 16.3787 6 17 6Z" fill="white"/>
<path d="M1.69602 33H0.298295L3.43892 24.2727H4.96023L8.10085 33H6.70312L4.2358 25.858H4.16761L1.69602 33ZM1.9304 29.5824H6.46449V30.6903H1.9304V29.5824ZM9.36115 33V24.2727H10.6353V27.5156H10.712C10.7859 27.3793 10.8924 27.2216 11.0316 27.0426C11.1708 26.8636 11.364 26.7074 11.6112 26.5739C11.8583 26.4375 12.185 26.3693 12.5913 26.3693C13.1197 26.3693 13.5913 26.5028 14.006 26.7699C14.4208 27.0369 14.7461 27.4219 14.9819 27.9247C15.2205 28.4276 15.3398 29.0327 15.3398 29.7401C15.3398 30.4474 15.2219 31.054 14.9862 31.5597C14.7504 32.0625 14.4265 32.4503 14.0146 32.723C13.6026 32.9929 13.1325 33.1278 12.604 33.1278C12.2063 33.1278 11.881 33.0611 11.6282 32.9276C11.3782 32.794 11.1822 32.6378 11.0401 32.4588C10.8981 32.2798 10.7887 32.1207 10.712 31.9815H10.6055V33H9.36115ZM10.6097 29.7273C10.6097 30.1875 10.6765 30.5909 10.81 30.9375C10.9435 31.2841 11.1367 31.5554 11.3896 31.7514C11.6424 31.9446 11.9521 32.0412 12.3185 32.0412C12.6992 32.0412 13.0174 31.9403 13.2731 31.7386C13.5288 31.5341 13.7219 31.2571 13.8526 30.9077C13.9862 30.5582 14.0529 30.1648 14.0529 29.7273C14.0529 29.2955 13.9876 28.9077 13.8569 28.5639C13.729 28.2202 13.5359 27.9489 13.2773 27.75C13.0217 27.5511 12.7021 27.4517 12.3185 27.4517C11.9492 27.4517 11.6367 27.5469 11.381 27.7372C11.1282 27.9276 10.9364 28.1932 10.8058 28.5341C10.6751 28.875 10.6097 29.2727 10.6097 29.7273ZM19.5277 33.1321C18.9141 33.1321 18.3786 32.9915 17.9212 32.7102C17.4638 32.429 17.1087 32.0355 16.8558 31.5298C16.603 31.0241 16.4766 30.4332 16.4766 29.7571C16.4766 29.0781 16.603 28.4844 16.8558 27.9759C17.1087 27.4673 17.4638 27.0724 17.9212 26.7912C18.3786 26.5099 18.9141 26.3693 19.5277 26.3693C20.1413 26.3693 20.6768 26.5099 21.1342 26.7912C21.5916 27.0724 21.9467 27.4673 22.1996 27.9759C22.4524 28.4844 22.5788 29.0781 22.5788 29.7571C22.5788 30.4332 22.4524 31.0241 22.1996 31.5298C21.9467 32.0355 21.5916 32.429 21.1342 32.7102C20.6768 32.9915 20.1413 33.1321 19.5277 33.1321ZM19.532 32.0625C19.9297 32.0625 20.2592 31.9574 20.5206 31.7472C20.782 31.5369 20.9751 31.2571 21.1001 30.9077C21.228 30.5582 21.2919 30.1733 21.2919 29.7528C21.2919 29.3352 21.228 28.9517 21.1001 28.6023C20.9751 28.25 20.782 27.9673 20.5206 27.7543C20.2592 27.5412 19.9297 27.4347 19.532 27.4347C19.1314 27.4347 18.799 27.5412 18.5348 27.7543C18.2734 27.9673 18.0788 28.25 17.951 28.6023C17.826 28.9517 17.7635 29.3352 17.7635 29.7528C17.7635 30.1733 17.826 30.5582 17.951 30.9077C18.0788 31.2571 18.2734 31.5369 18.5348 31.7472C18.799 31.9574 19.1314 32.0625 19.532 32.0625ZM28.1474 30.2855V26.4545H29.4258V33H28.1729V31.8665H28.1048C27.9542 32.2159 27.7127 32.5071 27.3803 32.7401C27.0508 32.9702 26.6403 33.0852 26.1488 33.0852C25.7283 33.0852 25.3562 32.9929 25.0323 32.8082C24.7113 32.6207 24.4585 32.3438 24.2738 31.9773C24.092 31.6108 24.0011 31.1577 24.0011 30.6179V26.4545H25.2752V30.4645C25.2752 30.9105 25.3988 31.2656 25.646 31.5298C25.8931 31.794 26.2141 31.9261 26.609 31.9261C26.8477 31.9261 27.0849 31.8665 27.3207 31.7472C27.5593 31.6278 27.7567 31.4474 27.913 31.206C28.0721 30.9645 28.1502 30.6577 28.1474 30.2855ZM34.1932 26.4545V27.4773H30.6179V26.4545H34.1932ZM31.5767 24.8864H32.8509V31.0781C32.8509 31.3253 32.8878 31.5114 32.9616 31.6364C33.0355 31.7585 33.1307 31.8423 33.2472 31.8878C33.3665 31.9304 33.4957 31.9517 33.6349 31.9517C33.7372 31.9517 33.8267 31.9446 33.9034 31.9304C33.9801 31.9162 34.0398 31.9048 34.0824 31.8963L34.3125 32.9489C34.2386 32.9773 34.1335 33.0057 33.9972 33.0341C33.8608 33.0653 33.6903 33.0824 33.4858 33.0852C33.1506 33.0909 32.8381 33.0312 32.5483 32.9062C32.2585 32.7812 32.0241 32.5881 31.8452 32.3267C31.6662 32.0653 31.5767 31.7372 31.5767 31.3423V24.8864Z" fill="white"/>
</svg>
