<svg width="35" height="36" viewBox="0 0 35 36" fill="none" xmlns="http://www.w3.org/2000/svg">
<path d="M17 18C18.78 18 20.5201 17.4722 22.0001 16.4832C23.4802 15.4943 24.6337 14.0887 25.3149 12.4442C25.9961 10.7996 26.1743 8.99002 25.8271 7.24419C25.4798 5.49836 24.6226 3.89472 23.364 2.63604C22.1053 1.37737 20.5016 0.520204 18.7558 0.172937C17.01 -0.17433 15.2004 0.00389957 13.5558 0.685088C11.9113 1.36628 10.5057 2.51983 9.51677 3.99987C8.52784 5.47991 8 7.21997 8 9C8.00258 11.3862 8.95162 13.6738 10.6389 15.3611C12.3262 17.0484 14.6138 17.9974 17 18ZM17 3.75C17.2225 3.75 17.44 3.81598 17.625 3.9396C17.81 4.06322 17.9542 4.23892 18.0394 4.44449C18.1245 4.65005 18.1468 4.87625 18.1034 5.09448C18.06 5.31271 17.9528 5.51316 17.7955 5.6705C17.6382 5.82783 17.4377 5.93498 17.2195 5.97839C17.0012 6.0218 16.775 5.99952 16.5695 5.91437C16.3639 5.82922 16.1882 5.68503 16.0646 5.50002C15.941 5.31502 15.875 5.09751 15.875 4.875C15.875 4.57664 15.9935 4.29049 16.2045 4.07951C16.4155 3.86853 16.7016 3.75 17 3.75ZM16.25 7.5H17C17.3978 7.5 17.7794 7.65804 18.0607 7.93934C18.342 8.22065 18.5 8.60218 18.5 9V13.5C18.5 13.6989 18.421 13.8897 18.2803 14.0303C18.1397 14.171 17.9489 14.25 17.75 14.25C17.5511 14.25 17.3603 14.171 17.2197 14.0303C17.079 13.8897 17 13.6989 17 13.5V9H16.25C16.0511 9 15.8603 8.92099 15.7197 8.78033C15.579 8.63968 15.5 8.44892 15.5 8.25C15.5 8.05109 15.579 7.86033 15.7197 7.71967C15.8603 7.57902 16.0511 7.5 16.25 7.5Z" fill="white"/>
<path d="M1.69602 33H0.298295L3.43892 24.2727H4.96023L8.10085 33H6.70312L4.2358 25.858H4.16761L1.69602 33ZM1.9304 29.5824H6.46449V30.6903H1.9304V29.5824ZM9.36115 33V24.2727H10.6353V27.5156H10.712C10.7859 27.3793 10.8924 27.2216 11.0316 27.0426C11.1708 26.8636 11.364 26.7074 11.6112 26.5739C11.8583 26.4375 12.185 26.3693 12.5913 26.3693C13.1197 26.3693 13.5913 26.5028 14.006 26.7699C14.4208 27.0369 14.7461 27.4219 14.9819 27.9247C15.2205 28.4276 15.3398 29.0327 15.3398 29.7401C15.3398 30.4474 15.2219 31.054 14.9862 31.5597C14.7504 32.0625 14.4265 32.4503 14.0146 32.723C13.6026 32.9929 13.1325 33.1278 12.604 33.1278C12.2063 33.1278 11.881 33.0611 11.6282 32.9276C11.3782 32.794 11.1822 32.6378 11.0401 32.4588C10.8981 32.2798 10.7887 32.1207 10.712 31.9815H10.6055V33H9.36115ZM10.6097 29.7273C10.6097 30.1875 10.6765 30.5909 10.81 30.9375C10.9435 31.2841 11.1367 31.5554 11.3896 31.7514C11.6424 31.9446 11.9521 32.0412 12.3185 32.0412C12.6992 32.0412 13.0174 31.9403 13.2731 31.7386C13.5288 31.5341 13.7219 31.2571 13.8526 30.9077C13.9862 30.5582 14.0529 30.1648 14.0529 29.7273C14.0529 29.2955 13.9876 28.9077 13.8569 28.5639C13.729 28.2202 13.5359 27.9489 13.2773 27.75C13.0217 27.5511 12.7021 27.4517 12.3185 27.4517C11.9492 27.4517 11.6367 27.5469 11.381 27.7372C11.1282 27.9276 10.9364 28.1932 10.8058 28.5341C10.6751 28.875 10.6097 29.2727 10.6097 29.7273ZM19.5277 33.1321C18.9141 33.1321 18.3786 32.9915 17.9212 32.7102C17.4638 32.429 17.1087 32.0355 16.8558 31.5298C16.603 31.0241 16.4766 30.4332 16.4766 29.7571C16.4766 29.0781 16.603 28.4844 16.8558 27.9759C17.1087 27.4673 17.4638 27.0724 17.9212 26.7912C18.3786 26.5099 18.9141 26.3693 19.5277 26.3693C20.1413 26.3693 20.6768 26.5099 21.1342 26.7912C21.5916 27.0724 21.9467 27.4673 22.1996 27.9759C22.4524 28.4844 22.5788 29.0781 22.5788 29.7571C22.5788 30.4332 22.4524 31.0241 22.1996 31.5298C21.9467 32.0355 21.5916 32.429 21.1342 32.7102C20.6768 32.9915 20.1413 33.1321 19.5277 33.1321ZM19.532 32.0625C19.9297 32.0625 20.2592 31.9574 20.5206 31.7472C20.782 31.5369 20.9751 31.2571 21.1001 30.9077C21.228 30.5582 21.2919 30.1733 21.2919 29.7528C21.2919 29.3352 21.228 28.9517 21.1001 28.6023C20.9751 28.25 20.782 27.9673 20.5206 27.7543C20.2592 27.5412 19.9297 27.4347 19.532 27.4347C19.1314 27.4347 18.799 27.5412 18.5348 27.7543C18.2734 27.9673 18.0788 28.25 17.951 28.6023C17.826 28.9517 17.7635 29.3352 17.7635 29.7528C17.7635 30.1733 17.826 30.5582 17.951 30.9077C18.0788 31.2571 18.2734 31.5369 18.5348 31.7472C18.799 31.9574 19.1314 32.0625 19.532 32.0625ZM28.1474 30.2855V26.4545H29.4258V33H28.1729V31.8665H28.1048C27.9542 32.2159 27.7127 32.5071 27.3803 32.7401C27.0508 32.9702 26.6403 33.0852 26.1488 33.0852C25.7283 33.0852 25.3562 32.9929 25.0323 32.8082C24.7113 32.6207 24.4585 32.3438 24.2738 31.9773C24.092 31.6108 24.0011 31.1577 24.0011 30.6179V26.4545H25.2752V30.4645C25.2752 30.9105 25.3988 31.2656 25.646 31.5298C25.8931 31.794 26.2141 31.9261 26.609 31.9261C26.8477 31.9261 27.0849 31.8665 27.3207 31.7472C27.5593 31.6278 27.7567 31.4474 27.913 31.206C28.0721 30.9645 28.1502 30.6577 28.1474 30.2855ZM34.1932 26.4545V27.4773H30.6179V26.4545H34.1932ZM31.5767 24.8864H32.8509V31.0781C32.8509 31.3253 32.8878 31.5114 32.9616 31.6364C33.0355 31.7585 33.1307 31.8423 33.2472 31.8878C33.3665 31.9304 33.4957 31.9517 33.6349 31.9517C33.7372 31.9517 33.8267 31.9446 33.9034 31.9304C33.9801 31.9162 34.0398 31.9048 34.0824 31.8963L34.3125 32.9489C34.2386 32.9773 34.1335 33.0057 33.9972 33.0341C33.8608 33.0653 33.6903 33.0824 33.4858 33.0852C33.1506 33.0909 32.8381 33.0312 32.5483 32.9062C32.2585 32.7812 32.0241 32.5881 31.8452 32.3267C31.6662 32.0653 31.5767 31.7372 31.5767 31.3423V24.8864Z" fill="white"/>
</svg>
