<svg width="54" height="36" viewBox="0 0 54 36" fill="none" xmlns="http://www.w3.org/2000/svg">
<path d="M19.4089 13.4087C18.7573 14.3084 18.2896 15.3279 18.0327 16.4087C17.9836 16.6239 17.9899 16.848 18.051 17.0601C18.1122 17.2721 18.2261 17.4652 18.3822 17.6212C18.5383 17.7772 18.7315 17.8911 18.9436 17.9521C19.1556 18.0132 19.3798 18.0194 19.5949 17.9702C20.674 17.7129 21.6919 17.2455 22.5904 16.5947C23.0129 16.1728 23.2505 15.6004 23.2509 15.0033C23.2513 14.4062 23.0146 13.8334 22.5927 13.411C22.1708 12.9885 21.5983 12.7509 21.0013 12.7505C20.4042 12.75 19.8314 12.9868 19.4089 13.4087ZM21.5299 15.5305C20.9254 15.9176 20.2688 16.2166 19.5799 16.4185C19.782 15.7297 20.081 15.0731 20.4679 14.4685C20.6094 14.3318 20.7988 14.2562 20.9955 14.2579C21.1921 14.2597 21.3802 14.3385 21.5193 14.4776C21.6583 14.6166 21.7372 14.8048 21.7389 15.0014C21.7406 15.1981 21.665 15.3875 21.5284 15.529L21.5299 15.5305ZM31.4997 6.37521C31.4997 6.87249 31.3021 7.3494 30.9505 7.70103C30.5989 8.05266 30.1219 8.25021 29.6247 8.25021C29.1274 8.25021 28.6505 8.05266 28.2988 7.70103C27.9472 7.3494 27.7497 6.87249 27.7497 6.37521C27.7497 5.87792 27.9472 5.40101 28.2988 5.04938C28.6505 4.69775 29.1274 4.50021 29.6247 4.50021C30.1219 4.50021 30.5989 4.69775 30.9505 5.04938C31.3021 5.40101 31.4997 5.87792 31.4997 6.37521ZM33.7287 0.000205257C31.9438 -0.0104047 30.1806 0.39045 28.5758 1.17165C26.971 1.95285 25.5678 3.09338 24.4752 4.50471C23.2835 4.5459 22.1147 4.8434 21.0484 5.37696C19.8118 5.94638 18.8023 6.91466 18.1819 8.12646C18.0363 8.46453 17.9772 8.83354 18.0099 9.20018C18.0427 9.56681 18.1662 9.91952 18.3694 10.2265C18.5745 10.5409 18.8549 10.7992 19.185 10.978C19.5152 11.1567 19.8847 11.2503 20.2602 11.2502H22.1247C22.8198 11.2536 23.4856 11.5312 23.9771 12.0228C24.4687 12.5143 24.7463 13.18 24.7497 13.8752V15.7397C24.7494 16.115 24.8427 16.4845 25.0212 16.8146C25.1997 17.1447 25.4577 17.4252 25.7719 17.6305C26.0788 17.8336 26.4316 17.9572 26.7982 17.9899C27.1648 18.0227 27.5338 17.9636 27.8719 17.818C29.0837 17.1975 30.052 16.188 30.6214 14.9515C31.155 13.8851 31.4525 12.7164 31.4937 11.5247C32.9072 10.4293 34.0491 9.02264 34.8307 7.41411C35.6122 5.80558 36.0122 4.03849 35.9997 2.25021C35.9988 1.95321 35.9393 1.65931 35.8246 1.38536C35.7099 1.1114 35.5422 0.862782 35.3313 0.653752C35.1203 0.444722 34.8701 0.279392 34.5951 0.167242C34.3201 0.0550924 34.0257 -0.0016714 33.7287 0.000205257ZM21.2592 9.75021H20.2602C20.1333 9.75118 20.0083 9.71997 19.8968 9.65951C19.7854 9.59904 19.691 9.51129 19.6227 9.40446C19.5555 9.30523 19.5145 9.19067 19.5033 9.07137C19.4922 8.95208 19.5113 8.8319 19.5589 8.72196C20.0422 7.83629 20.8014 7.13264 21.7212 6.71796C22.1964 6.47968 22.6981 6.29842 23.2159 6.17796C22.4704 7.31522 21.8161 8.5097 21.2592 9.75021ZM29.2842 14.2787C28.8695 15.1982 28.1662 15.9574 27.2809 16.441C27.1709 16.4886 27.0505 16.5078 26.9311 16.4966C26.8117 16.4855 26.697 16.4444 26.5977 16.3772C26.4908 16.3088 26.4031 16.2145 26.3426 16.103C26.2821 15.9915 26.2509 15.8665 26.2519 15.7397V14.7407C27.4924 14.1837 28.6869 13.5294 29.8242 12.784C29.703 13.3018 29.521 13.8036 29.2819 14.2787H29.2842ZM29.3854 11.2637C28.3705 11.9686 27.2991 12.5885 26.1822 13.117C26.0296 12.298 25.6327 11.5444 25.0437 10.9554C24.4547 10.3664 23.7011 9.96948 22.8822 9.81696C23.411 8.70101 24.0312 7.63062 24.7362 6.6167C27.2622 3.0932 29.8797 1.61046 33.7497 1.50021C33.945 1.50013 34.1326 1.57626 34.2727 1.7124C34.4128 1.84854 34.4942 2.03395 34.4997 2.22921C34.3894 6.12021 32.9067 8.73771 29.3832 11.2637H29.3854Z" fill="white"/>
<path d="M1.69602 33H0.298295L3.43892 24.2727H4.96023L8.10085 33H6.70312L4.2358 25.858H4.16761L1.69602 33ZM1.9304 29.5824H6.46449V30.6903H1.9304V29.5824ZM11.9105 33.1321C11.277 33.1321 10.7315 32.9886 10.2741 32.7017C9.8196 32.4119 9.47017 32.0128 9.22585 31.5043C8.98153 30.9957 8.85938 30.4134 8.85938 29.7571C8.85938 29.0923 8.98438 28.5057 9.23438 27.9972C9.48438 27.4858 9.83665 27.0866 10.2912 26.7997C10.7457 26.5128 11.2813 26.3693 11.8977 26.3693C12.3949 26.3693 12.8381 26.4616 13.2273 26.6463C13.6165 26.8281 13.9304 27.0838 14.169 27.4134C14.4105 27.7429 14.554 28.1278 14.5994 28.5682H13.3594C13.2912 28.2614 13.1349 27.9972 12.8906 27.7756C12.6491 27.554 12.3253 27.4432 11.919 27.4432C11.5639 27.4432 11.2528 27.5369 10.9858 27.7244C10.7216 27.9091 10.5156 28.1733 10.3679 28.517C10.2202 28.858 10.1463 29.2614 10.1463 29.7273C10.1463 30.2045 10.2188 30.6165 10.3636 30.9631C10.5085 31.3097 10.7131 31.5781 10.9773 31.7685C11.2443 31.9588 11.5582 32.054 11.919 32.054C12.1605 32.054 12.3793 32.0099 12.5753 31.9219C12.7741 31.831 12.9403 31.7017 13.0739 31.5341C13.2102 31.3665 13.3054 31.1648 13.3594 30.929H14.5994C14.554 31.3523 14.4162 31.7301 14.1861 32.0625C13.956 32.3949 13.6477 32.6562 13.2614 32.8466C12.8778 33.0369 12.4276 33.1321 11.9105 33.1321ZM19.0174 26.4545V27.4773H15.4421V26.4545H19.0174ZM16.4009 24.8864H17.6751V31.0781C17.6751 31.3253 17.712 31.5114 17.7859 31.6364C17.8597 31.7585 17.9549 31.8423 18.0714 31.8878C18.1907 31.9304 18.32 31.9517 18.4592 31.9517C18.5614 31.9517 18.6509 31.9446 18.7276 31.9304C18.8043 31.9162 18.864 31.9048 18.9066 31.8963L19.1367 32.9489C19.0629 32.9773 18.9577 33.0057 18.8214 33.0341C18.685 33.0653 18.5146 33.0824 18.31 33.0852C17.9748 33.0909 17.6623 33.0312 17.3725 32.9062C17.0827 32.7812 16.8484 32.5881 16.6694 32.3267C16.4904 32.0653 16.4009 31.7372 16.4009 31.3423V24.8864ZM20.4268 33V26.4545H21.701V33H20.4268ZM21.0703 25.4446C20.8487 25.4446 20.6584 25.3707 20.4993 25.223C20.343 25.0724 20.2649 24.8935 20.2649 24.6861C20.2649 24.4759 20.343 24.2969 20.4993 24.1491C20.6584 23.9986 20.8487 23.9233 21.0703 23.9233C21.2919 23.9233 21.4808 23.9986 21.6371 24.1491C21.7962 24.2969 21.8757 24.4759 21.8757 24.6861C21.8757 24.8935 21.7962 25.0724 21.6371 25.223C21.4808 25.3707 21.2919 25.4446 21.0703 25.4446ZM29.0146 26.4545L26.641 33H25.2773L22.8995 26.4545H24.2674L25.9251 31.4915H25.9933L27.6467 26.4545H29.0146ZM30.212 33V26.4545H31.4862V33H30.212ZM30.8555 25.4446C30.6339 25.4446 30.4435 25.3707 30.2844 25.223C30.1282 25.0724 30.0501 24.8935 30.0501 24.6861C30.0501 24.4759 30.1282 24.2969 30.2844 24.1491C30.4435 23.9986 30.6339 23.9233 30.8555 23.9233C31.0771 23.9233 31.266 23.9986 31.4222 24.1491C31.5813 24.2969 31.6609 24.4759 31.6609 24.6861C31.6609 24.8935 31.5813 25.0724 31.4222 25.223C31.266 25.3707 31.0771 25.4446 30.8555 25.4446ZM36.2557 26.4545V27.4773H32.6804V26.4545H36.2557ZM33.6392 24.8864H34.9134V31.0781C34.9134 31.3253 34.9503 31.5114 35.0241 31.6364C35.098 31.7585 35.1932 31.8423 35.3097 31.8878C35.429 31.9304 35.5582 31.9517 35.6974 31.9517C35.7997 31.9517 35.8892 31.9446 35.9659 31.9304C36.0426 31.9162 36.1023 31.9048 36.1449 31.8963L36.375 32.9489C36.3011 32.9773 36.196 33.0057 36.0597 33.0341C35.9233 33.0653 35.7528 33.0824 35.5483 33.0852C35.2131 33.0909 34.9006 33.0312 34.6108 32.9062C34.321 32.7812 34.0866 32.5881 33.9077 32.3267C33.7287 32.0653 33.6392 31.7372 33.6392 31.3423V24.8864ZM37.6651 33V26.4545H38.9393V33H37.6651ZM38.3086 25.4446C38.087 25.4446 37.8967 25.3707 37.7376 25.223C37.5813 25.0724 37.5032 24.8935 37.5032 24.6861C37.5032 24.4759 37.5813 24.2969 37.7376 24.1491C37.8967 23.9986 38.087 23.9233 38.3086 23.9233C38.5302 23.9233 38.7191 23.9986 38.8754 24.1491C39.0344 24.2969 39.114 24.4759 39.114 24.6861C39.114 24.8935 39.0344 25.0724 38.8754 25.223C38.7191 25.3707 38.5302 25.4446 38.3086 25.4446ZM43.4744 33.1321C42.8295 33.1321 42.2741 32.9943 41.8082 32.7188C41.3452 32.4403 40.9872 32.0497 40.7344 31.5469C40.4844 31.0412 40.3594 30.4489 40.3594 29.7699C40.3594 29.0994 40.4844 28.5085 40.7344 27.9972C40.9872 27.4858 41.3395 27.0866 41.7912 26.7997C42.2457 26.5128 42.777 26.3693 43.3849 26.3693C43.7543 26.3693 44.1122 26.4304 44.4588 26.5526C44.8054 26.6747 45.1165 26.8665 45.392 27.1278C45.6676 27.3892 45.8849 27.7287 46.044 28.1463C46.2031 28.5611 46.2827 29.0653 46.2827 29.6591V30.1108H41.0795V29.1562H45.0341C45.0341 28.821 44.9659 28.5241 44.8295 28.2656C44.6932 28.0043 44.5014 27.7983 44.2543 27.6477C44.0099 27.4972 43.723 27.4219 43.3935 27.4219C43.0355 27.4219 42.723 27.5099 42.456 27.6861C42.1918 27.8594 41.9872 28.0866 41.8423 28.3679C41.7003 28.6463 41.6293 28.9489 41.6293 29.2756V30.0213C41.6293 30.4588 41.706 30.831 41.8594 31.1378C42.0156 31.4446 42.233 31.679 42.5114 31.8409C42.7898 32 43.1151 32.0795 43.4872 32.0795C43.7287 32.0795 43.9489 32.0455 44.1477 31.9773C44.3466 31.9062 44.5185 31.8011 44.6634 31.6619C44.8082 31.5227 44.919 31.3509 44.9957 31.1463L46.2017 31.3636C46.1051 31.7187 45.9318 32.0298 45.6818 32.2969C45.4347 32.5611 45.1236 32.767 44.7486 32.9148C44.3764 33.0597 43.9517 33.1321 43.4744 33.1321ZM52.6012 28.0526L51.4464 28.2571C51.3981 28.1094 51.3214 27.9687 51.2163 27.8352C51.114 27.7017 50.9748 27.5923 50.7987 27.5071C50.6225 27.4219 50.4023 27.3793 50.1381 27.3793C49.7773 27.3793 49.4762 27.4602 49.2347 27.6222C48.9933 27.7812 48.8725 27.9872 48.8725 28.2401C48.8725 28.4588 48.9535 28.6349 49.1154 28.7685C49.2773 28.902 49.5387 29.0114 49.8995 29.0966L50.9393 29.3352C51.5415 29.4744 51.9904 29.6889 52.2859 29.9787C52.5813 30.2685 52.729 30.6449 52.729 31.108C52.729 31.5 52.6154 31.8494 52.3881 32.1562C52.1637 32.4602 51.8498 32.6989 51.4464 32.8722C51.0458 33.0455 50.5813 33.1321 50.0529 33.1321C49.32 33.1321 48.7219 32.9759 48.2589 32.6634C47.7958 32.348 47.5117 31.9006 47.4066 31.321L48.6381 31.1335C48.7148 31.4545 48.8725 31.6974 49.1112 31.8622C49.3498 32.0241 49.6609 32.1051 50.0444 32.1051C50.462 32.1051 50.7958 32.0185 51.0458 31.8452C51.2958 31.669 51.4208 31.4545 51.4208 31.2017C51.4208 30.9972 51.3441 30.8253 51.1907 30.6861C51.0401 30.5469 50.8086 30.4418 50.4961 30.3707L49.3881 30.1278C48.7773 29.9886 48.3256 29.767 48.033 29.4631C47.7433 29.1591 47.5984 28.7741 47.5984 28.3082C47.5984 27.9219 47.7063 27.5838 47.9222 27.294C48.1381 27.0043 48.4364 26.7784 48.8171 26.6165C49.1978 26.4517 49.6339 26.3693 50.1254 26.3693C50.8327 26.3693 51.3896 26.5227 51.7958 26.8295C52.2021 27.1335 52.4705 27.5412 52.6012 28.0526Z" fill="white"/>
</svg>
