<svg width="34" height="36" viewBox="0 0 34 36" fill="none" xmlns="http://www.w3.org/2000/svg">
<path d="M9.8661 13.4065C9.23309 14.3061 8.77877 15.3254 8.52916 16.406C8.48149 16.6211 8.48763 16.8452 8.54702 17.0572C8.60641 17.2692 8.71711 17.4623 8.86874 17.6183C9.02038 17.7743 9.208 17.8881 9.41403 17.9491C9.62007 18.0102 9.83778 18.0164 10.0468 17.9672C11.0951 17.7099 12.0839 17.2426 12.9567 16.5919C13.3671 16.1701 13.5979 15.5978 13.5983 15.0008C13.5987 14.4038 13.3687 13.8311 12.9589 13.4087C12.5491 12.9863 11.993 12.7487 11.4129 12.7483C10.8329 12.7479 10.2765 12.9846 9.8661 13.4065ZM11.9265 15.5279C11.3393 15.915 10.7014 16.2139 10.0322 16.4157C10.2285 15.727 10.519 15.0706 10.8948 14.466C11.0323 14.3294 11.2163 14.2539 11.4073 14.2556C11.5984 14.2573 11.7811 14.3361 11.9162 14.4752C12.0513 14.6142 12.1279 14.8023 12.1295 14.9989C12.1312 15.1955 12.0578 15.3849 11.925 15.5264L11.9265 15.5279ZM21.6114 6.37414C21.6114 6.87134 21.4195 7.34817 21.0779 7.69975C20.7364 8.05132 20.2731 8.24883 19.79 8.24883C19.3069 8.24883 18.8436 8.05132 18.502 7.69975C18.1605 7.34817 17.9686 6.87134 17.9686 6.37414C17.9686 5.87694 18.1605 5.40011 18.502 5.04854C18.8436 4.69697 19.3069 4.49945 19.79 4.49945C20.2731 4.49945 20.7364 4.69697 21.0779 5.04854C21.4195 5.40011 21.6114 5.87694 21.6114 6.37414ZM23.7768 0.000205223C22.0429 -0.010403 20.33 0.390385 18.7711 1.17146C17.2121 1.95253 15.849 3.09287 14.7876 4.50395C13.63 4.54514 12.4946 4.8426 11.4588 5.37606C10.2575 5.94539 9.27686 6.9135 8.67415 8.1251C8.53271 8.46312 8.4753 8.83207 8.5071 9.19864C8.5389 9.56522 8.65891 9.91787 8.85629 10.2247C9.05556 10.5391 9.32789 10.7974 9.64861 10.9761C9.96933 11.1549 10.3283 11.2484 10.693 11.2483H12.5043C13.1796 11.2517 13.8263 11.5293 14.3038 12.0207C14.7813 12.5122 15.051 13.1778 15.0543 13.8729V15.7371C15.054 16.1123 15.1447 16.4817 15.3181 16.8118C15.4915 17.1419 15.7421 17.4222 16.0473 17.6275C16.3455 17.8307 16.6881 17.9542 17.0443 17.9869C17.4004 18.0196 17.7589 17.9606 18.0873 17.815C19.2645 17.1947 20.2051 16.1853 20.7583 14.949C21.2766 13.8828 21.5656 12.7142 21.6056 11.5228C22.9788 10.4275 24.0881 9.02114 24.8473 7.41287C25.6064 5.80461 25.995 4.03782 25.9829 2.24983C25.982 1.95288 25.9242 1.65903 25.8128 1.38512C25.7014 1.11122 25.5385 0.862638 25.3336 0.653643C25.1286 0.444647 24.8856 0.279345 24.6184 0.167214C24.3513 0.0550832 24.0653 -0.00167113 23.7768 0.000205223ZM11.6635 9.74858H10.693C10.5698 9.74955 10.4484 9.71835 10.3401 9.6579C10.2318 9.59744 10.1401 9.5097 10.0737 9.40289C10.0085 9.30368 9.96863 9.18914 9.95781 9.06986C9.94698 8.95059 9.96556 8.83043 10.0118 8.7205C10.4813 7.83499 11.2188 7.13145 12.1123 6.71683C12.5739 6.4786 13.0613 6.29737 13.5643 6.17693C12.8402 7.314 12.2046 8.50828 11.6635 9.74858ZM19.4592 14.2763C19.0564 15.1957 18.3732 15.9547 17.5132 16.4382C17.4063 16.4859 17.2894 16.505 17.1734 16.4939C17.0574 16.4828 16.946 16.4417 16.8495 16.3745C16.7457 16.3061 16.6604 16.2118 16.6017 16.1003C16.543 15.9889 16.5127 15.8639 16.5136 15.7371V14.7382C17.7187 14.1814 18.879 13.5272 19.9838 12.7818C19.8661 13.2996 19.6893 13.8013 19.457 14.2763H19.4592ZM19.5576 11.2618C18.5717 11.9666 17.5309 12.5864 16.4458 13.1148C16.2977 12.296 15.9121 11.5425 15.3399 10.9536C14.7677 10.3646 14.0357 9.96781 13.2401 9.81532C13.7539 8.69956 14.3563 7.62935 15.0412 6.6156C17.495 3.09269 20.0377 1.61019 23.7972 1.49995C23.9869 1.49988 24.1692 1.57599 24.3053 1.71211C24.4413 1.84823 24.5204 2.03362 24.5257 2.22883C24.4186 6.11918 22.9782 8.73625 19.5554 11.2618H19.5576Z" fill="white"/>
<path d="M0.958807 33V24.2727H6.4304V25.4062H2.27557V28.0653H6.14489V29.1946H2.27557V31.8665H6.48153V33H0.958807ZM13.6864 26.4545L11.3129 33H9.94922L7.57138 26.4545H8.93928L10.5969 31.4915H10.6651L12.3185 26.4545H13.6864ZM17.4822 33.1321C16.8374 33.1321 16.282 32.9943 15.8161 32.7188C15.353 32.4403 14.995 32.0497 14.7422 31.5469C14.4922 31.0412 14.3672 30.4489 14.3672 29.7699C14.3672 29.0994 14.4922 28.5085 14.7422 27.9972C14.995 27.4858 15.3473 27.0866 15.799 26.7997C16.2536 26.5128 16.7848 26.3693 17.3928 26.3693C17.7621 26.3693 18.12 26.4304 18.4666 26.5526C18.8132 26.6747 19.1243 26.8665 19.3999 27.1278C19.6754 27.3892 19.8928 27.7287 20.0518 28.1463C20.2109 28.5611 20.2905 29.0653 20.2905 29.6591V30.1108H15.0874V29.1562H19.0419C19.0419 28.821 18.9737 28.5241 18.8374 28.2656C18.701 28.0043 18.5092 27.7983 18.2621 27.6477C18.0178 27.4972 17.7308 27.4219 17.4013 27.4219C17.0433 27.4219 16.7308 27.5099 16.4638 27.6861C16.1996 27.8594 15.995 28.0866 15.8501 28.3679C15.7081 28.6463 15.6371 28.9489 15.6371 29.2756V30.0213C15.6371 30.4588 15.7138 30.831 15.8672 31.1378C16.0234 31.4446 16.2408 31.679 16.5192 31.8409C16.7976 32 17.1229 32.0795 17.495 32.0795C17.7365 32.0795 17.9567 32.0455 18.1555 31.9773C18.3544 31.9062 18.5263 31.8011 18.6712 31.6619C18.8161 31.5227 18.9268 31.3509 19.0036 31.1463L20.2095 31.3636C20.1129 31.7187 19.9396 32.0298 19.6896 32.2969C19.4425 32.5611 19.1314 32.767 18.7564 32.9148C18.3842 33.0597 17.9595 33.1321 17.4822 33.1321ZM22.9783 29.1136V33H21.7042V26.4545H22.9272V27.5199H23.0082C23.1587 27.1733 23.3945 26.8949 23.7156 26.6847C24.0394 26.4744 24.4471 26.3693 24.9386 26.3693C25.3846 26.3693 25.7752 26.4631 26.1104 26.6506C26.4457 26.8352 26.7056 27.1108 26.8903 27.4773C27.0749 27.8437 27.1673 28.2969 27.1673 28.8366V33H25.8931V28.9901C25.8931 28.5156 25.7695 28.1449 25.5224 27.8778C25.2752 27.608 24.9357 27.473 24.5039 27.473C24.2085 27.473 23.9457 27.5369 23.7156 27.6648C23.4883 27.7926 23.3079 27.9801 23.1744 28.2273C23.0437 28.4716 22.9783 28.767 22.9783 29.1136ZM31.9315 26.4545V27.4773H28.3562V26.4545H31.9315ZM29.315 24.8864H30.5891V31.0781C30.5891 31.3253 30.6261 31.5114 30.6999 31.6364C30.7738 31.7585 30.869 31.8423 30.9854 31.8878C31.1048 31.9304 31.234 31.9517 31.3732 31.9517C31.4755 31.9517 31.565 31.9446 31.6417 31.9304C31.7184 31.9162 31.7781 31.9048 31.8207 31.8963L32.0508 32.9489C31.9769 32.9773 31.8718 33.0057 31.7354 33.0341C31.5991 33.0653 31.4286 33.0824 31.2241 33.0852C30.8888 33.0909 30.5763 33.0312 30.2866 32.9062C29.9968 32.7812 29.7624 32.5881 29.5835 32.3267C29.4045 32.0653 29.315 31.7372 29.315 31.3423V24.8864Z" fill="white"/>
</svg>
