<svg width="26" height="36" viewBox="0 0 26 36" fill="none" xmlns="http://www.w3.org/2000/svg">
<g clip-path="url(#clip0_16_73)">
<path d="M18.25 0.75H7.75C6.7558 0.751191 5.80267 1.14666 5.09966 1.84966C4.39666 2.55267 4.00119 3.5058 4 4.5L4 13.5C4.00119 14.4942 4.39666 15.4473 5.09966 16.1503C5.80267 16.8533 6.7558 17.2488 7.75 17.25H18.25C19.2442 17.2488 20.1973 16.8533 20.9003 16.1503C21.6033 15.4473 21.9988 14.4942 22 13.5V4.5C21.9988 3.5058 21.6033 2.55267 20.9003 1.84966C20.1973 1.14666 19.2442 0.751191 18.25 0.75ZM7.75 2.25H18.25C18.8467 2.25 19.419 2.48705 19.841 2.90901C20.2629 3.33097 20.5 3.90326 20.5 4.5V5.25H5.5V4.5C5.5 3.90326 5.73705 3.33097 6.15901 2.90901C6.58097 2.48705 7.15326 2.25 7.75 2.25ZM18.25 15.75H7.75C7.15326 15.75 6.58097 15.5129 6.15901 15.091C5.73705 14.669 5.5 14.0967 5.5 13.5V6.75H20.5V13.5C20.5 14.0967 20.2629 14.669 19.841 15.091C19.419 15.5129 18.8467 15.75 18.25 15.75ZM18.25 9.75C18.25 9.94891 18.171 10.1397 18.0303 10.2803C17.8897 10.421 17.6989 10.5 17.5 10.5H8.5C8.30109 10.5 8.11032 10.421 7.96967 10.2803C7.82902 10.1397 7.75 9.94891 7.75 9.75C7.75 9.55109 7.82902 9.36032 7.96967 9.21967C8.11032 9.07902 8.30109 9 8.5 9H17.5C17.6989 9 17.8897 9.07902 18.0303 9.21967C18.171 9.36032 18.25 9.55109 18.25 9.75ZM15.25 12.75C15.25 12.9489 15.171 13.1397 15.0303 13.2803C14.8897 13.421 14.6989 13.5 14.5 13.5H8.5C8.30109 13.5 8.11032 13.421 7.96967 13.2803C7.82902 13.1397 7.75 12.9489 7.75 12.75C7.75 12.5511 7.82902 12.3603 7.96967 12.2197C8.11032 12.079 8.30109 12 8.5 12H14.5C14.6989 12 14.8897 12.079 15.0303 12.2197C15.171 12.3603 15.25 12.5511 15.25 12.75ZM6.25 3.75C6.25 3.60166 6.29399 3.45666 6.3764 3.33332C6.45881 3.20999 6.57594 3.11386 6.71299 3.05709C6.85003 3.00032 7.00083 2.98547 7.14632 3.01441C7.2918 3.04335 7.42544 3.11478 7.53033 3.21967C7.63522 3.32456 7.70665 3.4582 7.73559 3.60368C7.76453 3.74917 7.74968 3.89997 7.69291 4.03701C7.63614 4.17406 7.54001 4.29119 7.41668 4.3736C7.29334 4.45601 7.14834 4.5 7 4.5C6.80109 4.5 6.61032 4.42098 6.46967 4.28033C6.32902 4.13968 6.25 3.94891 6.25 3.75ZM8.5 3.75C8.5 3.60166 8.54399 3.45666 8.6264 3.33332C8.70881 3.20999 8.82594 3.11386 8.96299 3.05709C9.10003 3.00032 9.25083 2.98547 9.39632 3.01441C9.5418 3.04335 9.67544 3.11478 9.78033 3.21967C9.88522 3.32456 9.95665 3.4582 9.98559 3.60368C10.0145 3.74917 9.99968 3.89997 9.94291 4.03701C9.88614 4.17406 9.79001 4.29119 9.66668 4.3736C9.54334 4.45601 9.39834 4.5 9.25 4.5C9.05109 4.5 8.86032 4.42098 8.71967 4.28033C8.57902 4.13968 8.5 3.94891 8.5 3.75ZM10.75 3.75C10.75 3.60166 10.794 3.45666 10.8764 3.33332C10.9588 3.20999 11.0759 3.11386 11.213 3.05709C11.35 3.00032 11.5008 2.98547 11.6463 3.01441C11.7918 3.04335 11.9254 3.11478 12.0303 3.21967C12.1352 3.32456 12.2066 3.4582 12.2356 3.60368C12.2645 3.74917 12.2497 3.89997 12.1929 4.03701C12.1361 4.17406 12.04 4.29119 11.9167 4.3736C11.7933 4.45601 11.6483 4.5 11.5 4.5C11.3011 4.5 11.1103 4.42098 10.9697 4.28033C10.829 4.13968 10.75 3.94891 10.75 3.75Z" fill="white"/>
</g>
<path d="M0.958807 33V24.2727H4.15483C4.77415 24.2727 5.28693 24.375 5.69318 24.5795C6.09943 24.7812 6.40341 25.0554 6.60511 25.402C6.80682 25.7457 6.90767 26.1335 6.90767 26.5653C6.90767 26.929 6.84091 27.2358 6.70739 27.4858C6.57386 27.733 6.39489 27.9318 6.17045 28.0824C5.94886 28.2301 5.70455 28.3381 5.4375 28.4062V28.4915C5.72727 28.5057 6.00994 28.5994 6.28551 28.7727C6.56392 28.9432 6.79403 29.1861 6.97585 29.5014C7.15767 29.8168 7.24858 30.2003 7.24858 30.652C7.24858 31.098 7.14347 31.4986 6.93324 31.8537C6.72585 32.206 6.40483 32.4858 5.97017 32.6932C5.53551 32.8977 4.98011 33 4.30398 33H0.958807ZM2.27557 31.8707H4.17614C4.80682 31.8707 5.25852 31.7486 5.53125 31.5043C5.80398 31.2599 5.94034 30.9545 5.94034 30.5881C5.94034 30.3125 5.87074 30.0597 5.73153 29.8295C5.59233 29.5994 5.39347 29.4162 5.13494 29.2798C4.87926 29.1435 4.57528 29.0753 4.22301 29.0753H2.27557V31.8707ZM2.27557 28.0483H4.03977C4.33523 28.0483 4.60085 27.9915 4.83665 27.8778C5.07528 27.7642 5.2642 27.6051 5.40341 27.4006C5.54545 27.1932 5.61648 26.9489 5.61648 26.6676C5.61648 26.3068 5.49006 26.0043 5.23722 25.7599C4.98438 25.5156 4.59659 25.3935 4.07386 25.3935H2.27557V28.0483ZM9.98224 24.2727V33H8.7081V24.2727H9.98224ZM14.4535 33.1321C13.8398 33.1321 13.3043 32.9915 12.8469 32.7102C12.3896 32.429 12.0344 32.0355 11.7816 31.5298C11.5288 31.0241 11.4023 30.4332 11.4023 29.7571C11.4023 29.0781 11.5288 28.4844 11.7816 27.9759C12.0344 27.4673 12.3896 27.0724 12.8469 26.7912C13.3043 26.5099 13.8398 26.3693 14.4535 26.3693C15.0671 26.3693 15.6026 26.5099 16.06 26.7912C16.5174 27.0724 16.8725 27.4673 17.1254 27.9759C17.3782 28.4844 17.5046 29.0781 17.5046 29.7571C17.5046 30.4332 17.3782 31.0241 17.1254 31.5298C16.8725 32.0355 16.5174 32.429 16.06 32.7102C15.6026 32.9915 15.0671 33.1321 14.4535 33.1321ZM14.4577 32.0625C14.8555 32.0625 15.185 31.9574 15.4464 31.7472C15.7077 31.5369 15.9009 31.2571 16.0259 30.9077C16.1538 30.5582 16.2177 30.1733 16.2177 29.7528C16.2177 29.3352 16.1538 28.9517 16.0259 28.6023C15.9009 28.25 15.7077 27.9673 15.4464 27.7543C15.185 27.5412 14.8555 27.4347 14.4577 27.4347C14.0572 27.4347 13.7248 27.5412 13.4606 27.7543C13.1992 27.9673 13.0046 28.25 12.8768 28.6023C12.7518 28.9517 12.6893 29.3352 12.6893 29.7528C12.6893 30.1733 12.7518 30.5582 12.8768 30.9077C13.0046 31.2571 13.1992 31.5369 13.4606 31.7472C13.7248 31.9574 14.0572 32.0625 14.4577 32.0625ZM21.6712 35.5909C21.1513 35.5909 20.7038 35.5227 20.3288 35.3864C19.9567 35.25 19.6527 35.0696 19.4169 34.8452C19.1811 34.6207 19.005 34.375 18.8885 34.108L19.9837 33.6562C20.0604 33.7812 20.1626 33.9134 20.2905 34.0526C20.4212 34.1946 20.5973 34.3153 20.8189 34.4148C21.0433 34.5142 21.3317 34.5639 21.6839 34.5639C22.1669 34.5639 22.5661 34.446 22.8814 34.2102C23.1967 33.9773 23.3544 33.6051 23.3544 33.0938V31.8068H23.2734C23.1967 31.946 23.0859 32.1009 22.9411 32.2713C22.799 32.4418 22.603 32.5895 22.353 32.7145C22.103 32.8395 21.7777 32.902 21.3771 32.902C20.8601 32.902 20.3942 32.7812 19.9794 32.5398C19.5675 32.2955 19.2408 31.9361 18.9993 31.4616C18.7607 30.9844 18.6413 30.3977 18.6413 29.7017C18.6413 29.0057 18.7592 28.4091 18.995 27.9119C19.2337 27.4148 19.5604 27.0341 19.9751 26.7699C20.3899 26.5028 20.8601 26.3693 21.3857 26.3693C21.7919 26.3693 22.12 26.4375 22.37 26.5739C22.62 26.7074 22.8146 26.8636 22.9538 27.0426C23.0959 27.2216 23.2053 27.3793 23.282 27.5156H23.3757V26.4545H24.6243V33.1449C24.6243 33.7074 24.4936 34.169 24.2322 34.5298C23.9709 34.8906 23.6172 35.1577 23.1712 35.331C22.728 35.5043 22.228 35.5909 21.6712 35.5909ZM21.6584 31.8452C22.0249 31.8452 22.3345 31.7599 22.5874 31.5895C22.843 31.4162 23.0362 31.169 23.1669 30.848C23.3004 30.5241 23.3672 30.1364 23.3672 29.6847C23.3672 29.2443 23.3018 28.8565 23.1712 28.5213C23.0405 28.1861 22.8487 27.9247 22.5959 27.7372C22.343 27.5469 22.0305 27.4517 21.6584 27.4517C21.2749 27.4517 20.9553 27.5511 20.6996 27.75C20.4439 27.946 20.2507 28.2131 20.12 28.5511C19.9922 28.8892 19.9283 29.267 19.9283 29.6847C19.9283 30.1136 19.9936 30.4901 20.1243 30.8139C20.255 31.1378 20.4482 31.3906 20.7038 31.5724C20.9624 31.7543 21.2805 31.8452 21.6584 31.8452Z" fill="white"/>
<defs>
<clipPath id="clip0_16_73">
<rect width="18" height="18" fill="white" transform="translate(4)"/>
</clipPath>
</defs>
</svg>
