<svg width="26" height="36" viewBox="0 0 26 36" fill="none" xmlns="http://www.w3.org/2000/svg">
<path d="M4 6.54545V13.9091C4.00119 14.9937 4.39666 16.0335 5.09966 16.8004C5.80267 17.5673 6.7558 17.9987 7.75 18H18.25C19.2442 17.9987 20.1973 17.5673 20.9003 16.8004C21.6033 16.0335 21.9988 14.9937 22 13.9091V6.54545H4ZM14.5 14.7273H8.5C8.30109 14.7273 8.11032 14.6411 7.96967 14.4876C7.82902 14.3342 7.75 14.1261 7.75 13.9091C7.75 13.6921 7.82902 13.484 7.96967 13.3305C8.11032 13.1771 8.30109 13.0909 8.5 13.0909H14.5C14.6989 13.0909 14.8897 13.1771 15.0303 13.3305C15.171 13.484 15.25 13.6921 15.25 13.9091C15.25 14.1261 15.171 14.3342 15.0303 14.4876C14.8897 14.6411 14.6989 14.7273 14.5 14.7273ZM17.5 11.4545H8.5C8.30109 11.4545 8.11032 11.3683 7.96967 11.2149C7.82902 11.0615 7.75 10.8534 7.75 10.6364C7.75 10.4194 7.82902 10.2113 7.96967 10.0578C8.11032 9.90438 8.30109 9.81818 8.5 9.81818H17.5C17.6989 9.81818 17.8897 9.90438 18.0303 10.0578C18.171 10.2113 18.25 10.4194 18.25 10.6364C18.25 10.8534 18.171 11.0615 18.0303 11.2149C17.8897 11.3683 17.6989 11.4545 17.5 11.4545ZM22 4.90909V4.09091C21.9988 3.00633 21.6033 1.96655 20.9003 1.19963C20.1973 0.432722 19.2442 0.00129916 18.25 0H7.75C6.7558 0.00129916 5.80267 0.432722 5.09966 1.19963C4.39666 1.96655 4.00119 3.00633 4 4.09091L4 4.90909H22ZM11.5 1.63636C11.6483 1.63636 11.7933 1.68435 11.9167 1.77425C12.04 1.86416 12.1361 1.99194 12.1929 2.14144C12.2497 2.29094 12.2645 2.45545 12.2356 2.61416C12.2066 2.77288 12.1352 2.91866 12.0303 3.03309C11.9254 3.14751 11.7918 3.22544 11.6463 3.25701C11.5008 3.28858 11.35 3.27237 11.213 3.21045C11.0759 3.14852 10.9588 3.04365 10.8764 2.9091C10.794 2.77455 10.75 2.61637 10.75 2.45455C10.75 2.23755 10.829 2.02944 10.9697 1.876C11.1103 1.72256 11.3011 1.63636 11.5 1.63636ZM9.25 1.63636C9.39834 1.63636 9.54334 1.68435 9.66668 1.77425C9.79001 1.86416 9.88614 1.99194 9.94291 2.14144C9.99968 2.29094 10.0145 2.45545 9.98559 2.61416C9.95665 2.77288 9.88522 2.91866 9.78033 3.03309C9.67544 3.14751 9.5418 3.22544 9.39632 3.25701C9.25083 3.28858 9.10003 3.27237 8.96299 3.21045C8.82594 3.14852 8.70881 3.04365 8.6264 2.9091C8.54399 2.77455 8.5 2.61637 8.5 2.45455C8.5 2.23755 8.57902 2.02944 8.71967 1.876C8.86032 1.72256 9.05109 1.63636 9.25 1.63636ZM7 1.63636C7.14834 1.63636 7.29334 1.68435 7.41668 1.77425C7.54001 1.86416 7.63614 1.99194 7.69291 2.14144C7.74968 2.29094 7.76453 2.45545 7.73559 2.61416C7.70665 2.77288 7.63522 2.91866 7.53033 3.03309C7.42544 3.14751 7.2918 3.22544 7.14632 3.25701C7.00083 3.28858 6.85003 3.27237 6.71299 3.21045C6.57594 3.14852 6.45881 3.04365 6.3764 2.9091C6.29399 2.77455 6.25 2.61637 6.25 2.45455C6.25 2.23755 6.32902 2.02944 6.46967 1.876C6.61032 1.72256 6.80109 1.63636 7 1.63636Z" fill="white"/>
<path d="M0.958807 33V24.2727H4.15483C4.77415 24.2727 5.28693 24.375 5.69318 24.5795C6.09943 24.7812 6.40341 25.0554 6.60511 25.402C6.80682 25.7457 6.90767 26.1335 6.90767 26.5653C6.90767 26.929 6.84091 27.2358 6.70739 27.4858C6.57386 27.733 6.39489 27.9318 6.17045 28.0824C5.94886 28.2301 5.70455 28.3381 5.4375 28.4062V28.4915C5.72727 28.5057 6.00994 28.5994 6.28551 28.7727C6.56392 28.9432 6.79403 29.1861 6.97585 29.5014C7.15767 29.8168 7.24858 30.2003 7.24858 30.652C7.24858 31.098 7.14347 31.4986 6.93324 31.8537C6.72585 32.206 6.40483 32.4858 5.97017 32.6932C5.53551 32.8977 4.98011 33 4.30398 33H0.958807ZM2.27557 31.8707H4.17614C4.80682 31.8707 5.25852 31.7486 5.53125 31.5043C5.80398 31.2599 5.94034 30.9545 5.94034 30.5881C5.94034 30.3125 5.87074 30.0597 5.73153 29.8295C5.59233 29.5994 5.39347 29.4162 5.13494 29.2798C4.87926 29.1435 4.57528 29.0753 4.22301 29.0753H2.27557V31.8707ZM2.27557 28.0483H4.03977C4.33523 28.0483 4.60085 27.9915 4.83665 27.8778C5.07528 27.7642 5.2642 27.6051 5.40341 27.4006C5.54545 27.1932 5.61648 26.9489 5.61648 26.6676C5.61648 26.3068 5.49006 26.0043 5.23722 25.7599C4.98438 25.5156 4.59659 25.3935 4.07386 25.3935H2.27557V28.0483ZM9.98224 24.2727V33H8.7081V24.2727H9.98224ZM14.4535 33.1321C13.8398 33.1321 13.3043 32.9915 12.8469 32.7102C12.3896 32.429 12.0344 32.0355 11.7816 31.5298C11.5288 31.0241 11.4023 30.4332 11.4023 29.7571C11.4023 29.0781 11.5288 28.4844 11.7816 27.9759C12.0344 27.4673 12.3896 27.0724 12.8469 26.7912C13.3043 26.5099 13.8398 26.3693 14.4535 26.3693C15.0671 26.3693 15.6026 26.5099 16.06 26.7912C16.5174 27.0724 16.8725 27.4673 17.1254 27.9759C17.3782 28.4844 17.5046 29.0781 17.5046 29.7571C17.5046 30.4332 17.3782 31.0241 17.1254 31.5298C16.8725 32.0355 16.5174 32.429 16.06 32.7102C15.6026 32.9915 15.0671 33.1321 14.4535 33.1321ZM14.4577 32.0625C14.8555 32.0625 15.185 31.9574 15.4464 31.7472C15.7077 31.5369 15.9009 31.2571 16.0259 30.9077C16.1538 30.5582 16.2177 30.1733 16.2177 29.7528C16.2177 29.3352 16.1538 28.9517 16.0259 28.6023C15.9009 28.25 15.7077 27.9673 15.4464 27.7543C15.185 27.5412 14.8555 27.4347 14.4577 27.4347C14.0572 27.4347 13.7248 27.5412 13.4606 27.7543C13.1992 27.9673 13.0046 28.25 12.8768 28.6023C12.7518 28.9517 12.6893 29.3352 12.6893 29.7528C12.6893 30.1733 12.7518 30.5582 12.8768 30.9077C13.0046 31.2571 13.1992 31.5369 13.4606 31.7472C13.7248 31.9574 14.0572 32.0625 14.4577 32.0625ZM21.6712 35.5909C21.1513 35.5909 20.7038 35.5227 20.3288 35.3864C19.9567 35.25 19.6527 35.0696 19.4169 34.8452C19.1811 34.6207 19.005 34.375 18.8885 34.108L19.9837 33.6562C20.0604 33.7812 20.1626 33.9134 20.2905 34.0526C20.4212 34.1946 20.5973 34.3153 20.8189 34.4148C21.0433 34.5142 21.3317 34.5639 21.6839 34.5639C22.1669 34.5639 22.5661 34.446 22.8814 34.2102C23.1967 33.9773 23.3544 33.6051 23.3544 33.0938V31.8068H23.2734C23.1967 31.946 23.0859 32.1009 22.9411 32.2713C22.799 32.4418 22.603 32.5895 22.353 32.7145C22.103 32.8395 21.7777 32.902 21.3771 32.902C20.8601 32.902 20.3942 32.7812 19.9794 32.5398C19.5675 32.2955 19.2408 31.9361 18.9993 31.4616C18.7607 30.9844 18.6413 30.3977 18.6413 29.7017C18.6413 29.0057 18.7592 28.4091 18.995 27.9119C19.2337 27.4148 19.5604 27.0341 19.9751 26.7699C20.3899 26.5028 20.8601 26.3693 21.3857 26.3693C21.7919 26.3693 22.12 26.4375 22.37 26.5739C22.62 26.7074 22.8146 26.8636 22.9538 27.0426C23.0959 27.2216 23.2053 27.3793 23.282 27.5156H23.3757V26.4545H24.6243V33.1449C24.6243 33.7074 24.4936 34.169 24.2322 34.5298C23.9709 34.8906 23.6172 35.1577 23.1712 35.331C22.728 35.5043 22.228 35.5909 21.6712 35.5909ZM21.6584 31.8452C22.0249 31.8452 22.3345 31.7599 22.5874 31.5895C22.843 31.4162 23.0362 31.169 23.1669 30.848C23.3004 30.5241 23.3672 30.1364 23.3672 29.6847C23.3672 29.2443 23.3018 28.8565 23.1712 28.5213C23.0405 28.1861 22.8487 27.9247 22.5959 27.7372C22.343 27.5469 22.0305 27.4517 21.6584 27.4517C21.2749 27.4517 20.9553 27.5511 20.6996 27.75C20.4439 27.946 20.2507 28.2131 20.12 28.5511C19.9922 28.8892 19.9283 29.267 19.9283 29.6847C19.9283 30.1136 19.9936 30.4901 20.1243 30.8139C20.255 31.1378 20.4482 31.3906 20.7038 31.5724C20.9624 31.7543 21.2805 31.8452 21.6584 31.8452Z" fill="white"/>
</svg>
