<svg width="34" height="36" viewBox="0 0 34 36" fill="none" xmlns="http://www.w3.org/2000/svg">
<path d="M8.1381 10.2022C7.74027 9.60318 7.66074 8.8405 7.92611 8.16905C8.51919 6.93082 9.5127 5.94086 10.738 5.36726C11.6251 4.91576 12.586 4.63574 13.5725 4.54118C13.1426 5.08247 12.7124 5.66 12.2816 6.27386C11.4049 7.63257 10.6545 9.07232 10.0401 10.5742L9.77567 11.1811C9.11326 11.125 8.51123 10.7651 8.1381 10.2022ZM9.14557 13.3514C8.51267 14.2458 8.0584 15.2592 7.80885 16.3336C7.65326 17.0317 8.08008 17.7268 8.76222 17.886C8.94786 17.9294 9.14063 17.9293 9.32627 17.8859C10.3744 17.6301 11.3631 17.1655 12.2358 16.5185C13.0903 15.6444 13.0907 14.2267 12.2365 13.3522C11.3824 12.4776 9.99723 12.4772 9.14269 13.3514H9.14557ZM14.9274 15.5732L14.3301 15.8446V16.0638C14.3315 16.5889 14.537 17.0918 14.9012 17.4617C15.2477 17.8065 15.7117 17.9996 16.195 18C17.912 17.9746 19.3041 16.3747 20.0348 14.8851C20.4824 13.9632 20.7569 12.9635 20.8441 11.9379C20.3099 12.3852 19.737 12.8326 19.1256 13.2799C17.7986 14.1774 16.392 14.9452 14.9245 15.5732L14.9274 15.5732ZM25.2571 2.22847C25.1603 5.47387 22.8772 8.69243 18.277 12.0698C17.0251 12.9004 15.7044 13.6169 14.3301 14.2111V13.7913C14.3233 12.3531 13.1858 11.1888 11.7805 11.1819H11.3704C11.9523 9.77533 12.6536 8.42368 13.4662 7.14247C16.7581 2.44543 19.8978 0.105864 23.0637 0C24.6416 0 25.2571 0.657583 25.2571 2.22847ZM20.8863 6.33573C20.8863 5.30634 20.071 4.47183 19.0651 4.47183C18.0593 4.47183 17.244 5.30631 17.244 6.33573C17.244 7.36512 18.0593 8.19963 19.0651 8.19963C20.071 8.19963 20.8863 7.36512 20.8863 6.33573Z" fill="white"/>
<path d="M0.958807 33V24.2727H6.4304V25.4062H2.27557V28.0653H6.14489V29.1946H2.27557V31.8665H6.48153V33H0.958807ZM13.6864 26.4545L11.3129 33H9.94922L7.57138 26.4545H8.93928L10.5969 31.4915H10.6651L12.3185 26.4545H13.6864ZM17.4822 33.1321C16.8374 33.1321 16.282 32.9943 15.8161 32.7188C15.353 32.4403 14.995 32.0497 14.7422 31.5469C14.4922 31.0412 14.3672 30.4489 14.3672 29.7699C14.3672 29.0994 14.4922 28.5085 14.7422 27.9972C14.995 27.4858 15.3473 27.0866 15.799 26.7997C16.2536 26.5128 16.7848 26.3693 17.3928 26.3693C17.7621 26.3693 18.12 26.4304 18.4666 26.5526C18.8132 26.6747 19.1243 26.8665 19.3999 27.1278C19.6754 27.3892 19.8928 27.7287 20.0518 28.1463C20.2109 28.5611 20.2905 29.0653 20.2905 29.6591V30.1108H15.0874V29.1562H19.0419C19.0419 28.821 18.9737 28.5241 18.8374 28.2656C18.701 28.0043 18.5092 27.7983 18.2621 27.6477C18.0178 27.4972 17.7308 27.4219 17.4013 27.4219C17.0433 27.4219 16.7308 27.5099 16.4638 27.6861C16.1996 27.8594 15.995 28.0866 15.8501 28.3679C15.7081 28.6463 15.6371 28.9489 15.6371 29.2756V30.0213C15.6371 30.4588 15.7138 30.831 15.8672 31.1378C16.0234 31.4446 16.2408 31.679 16.5192 31.8409C16.7976 32 17.1229 32.0795 17.495 32.0795C17.7365 32.0795 17.9567 32.0455 18.1555 31.9773C18.3544 31.9062 18.5263 31.8011 18.6712 31.6619C18.8161 31.5227 18.9268 31.3509 19.0036 31.1463L20.2095 31.3636C20.1129 31.7187 19.9396 32.0298 19.6896 32.2969C19.4425 32.5611 19.1314 32.767 18.7564 32.9148C18.3842 33.0597 17.9595 33.1321 17.4822 33.1321ZM22.9783 29.1136V33H21.7042V26.4545H22.9272V27.5199H23.0082C23.1587 27.1733 23.3945 26.8949 23.7156 26.6847C24.0394 26.4744 24.4471 26.3693 24.9386 26.3693C25.3846 26.3693 25.7752 26.4631 26.1104 26.6506C26.4457 26.8352 26.7056 27.1108 26.8903 27.4773C27.0749 27.8437 27.1673 28.2969 27.1673 28.8366V33H25.8931V28.9901C25.8931 28.5156 25.7695 28.1449 25.5224 27.8778C25.2752 27.608 24.9357 27.473 24.5039 27.473C24.2085 27.473 23.9457 27.5369 23.7156 27.6648C23.4883 27.7926 23.3079 27.9801 23.1744 28.2273C23.0437 28.4716 22.9783 28.767 22.9783 29.1136ZM31.9315 26.4545V27.4773H28.3562V26.4545H31.9315ZM29.315 24.8864H30.5891V31.0781C30.5891 31.3253 30.6261 31.5114 30.6999 31.6364C30.7738 31.7585 30.869 31.8423 30.9854 31.8878C31.1048 31.9304 31.234 31.9517 31.3732 31.9517C31.4755 31.9517 31.565 31.9446 31.6417 31.9304C31.7184 31.9162 31.7781 31.9048 31.8207 31.8963L32.0508 32.9489C31.9769 32.9773 31.8718 33.0057 31.7354 33.0341C31.5991 33.0653 31.4286 33.0824 31.2241 33.0852C30.8888 33.0909 30.5763 33.0312 30.2866 32.9062C29.9968 32.7812 29.7624 32.5881 29.5835 32.3267C29.4045 32.0653 29.315 31.7372 29.315 31.3423V24.8864Z" fill="white"/>
</svg>
