<svg width="23" height="23" viewBox="0 0 23 23" fill="none" xmlns="http://www.w3.org/2000/svg">
<path d="M22.6418 9.03703H21.7558V8.99039H11.8559V13.4856H18.0725C17.1655 16.1023 14.7285 17.9808 11.8559 17.9808C8.21105 17.9808 5.25592 14.9617 5.25592 11.238C5.25592 7.51428 8.21105 4.49519 11.8559 4.49519C13.5383 4.49519 15.069 5.14363 16.2344 6.20281L19.3457 3.02414C17.3811 1.15358 14.7533 0 11.8559 0C5.78117 0 0.855957 5.03181 0.855957 11.238C0.855957 17.4442 5.78117 22.476 11.8559 22.476C17.9306 22.476 22.8558 17.4442 22.8558 11.238C22.8558 10.4845 22.7799 9.74895 22.6418 9.03703Z" fill="white"/>
<path d="M2.12402 6.00727L5.73805 8.71506C6.71594 6.24158 9.08422 4.49519 11.8557 4.49519C13.5381 4.49519 15.0687 5.14363 16.2342 6.20281L19.3455 3.02414C17.3809 1.15358 14.753 0 11.8557 0C7.63058 0 3.96651 2.43696 2.12402 6.00727Z" fill="white"/>
<path d="M11.8558 22.476C14.6971 22.476 17.2788 21.3651 19.2307 19.5586L15.8263 16.6154C14.6848 17.5023 13.2899 17.982 11.8558 17.9808C8.99477 17.9808 6.56544 16.117 5.65024 13.516L2.06317 16.3395C3.88366 19.9789 7.58073 22.476 11.8558 22.476Z" fill="white"/>
<path d="M22.642 9.03715H21.7559V8.99051H11.856V13.4857H18.0726C17.6388 14.7311 16.8573 15.8194 15.8248 16.616L15.8264 16.6149L19.2309 19.5581C18.99 19.7818 22.8559 16.8571 22.8559 11.2381C22.8559 10.4846 22.78 9.74907 22.642 9.03715Z" fill="white"/>
</svg>
