<svg width="34" height="36" viewBox="0 0 34 36" fill="none" xmlns="http://www.w3.org/2000/svg">
<path d="M25.3408 6.78572L19.652 1.09622C18.9479 0.394211 17.9943 0 17 0C16.0058 0 15.0521 0.394211 14.348 1.09622L8.65926 6.78572C8.44958 6.99406 8.28334 7.24194 8.17017 7.51501C8.05701 7.78807 7.99917 8.08088 8.00001 8.37647V15.7392C8.00001 16.336 8.23706 16.9083 8.65902 17.3302C9.08098 17.7522 9.65327 17.9892 10.25 17.9892H23.75C24.3467 17.9892 24.919 17.7522 25.341 17.3302C25.763 16.9083 26 16.336 26 15.7392V8.37647C26.0008 8.08088 25.943 7.78807 25.8298 7.51501C25.7167 7.24194 25.5504 6.99406 25.3408 6.78572ZM19.25 16.4892H14.75V13.5387C14.75 12.942 14.9871 12.3697 15.409 11.9477C15.831 11.5258 16.4033 11.2887 17 11.2887C17.5967 11.2887 18.169 11.5258 18.591 11.9477C19.013 12.3697 19.25 12.942 19.25 13.5387V16.4892ZM24.5 15.7392C24.5 15.9381 24.421 16.1289 24.2803 16.2696C24.1397 16.4102 23.9489 16.4892 23.75 16.4892H20.75V13.5387C20.75 12.5442 20.3549 11.5903 19.6517 10.8871C18.9484 10.1838 17.9946 9.78872 17 9.78872C16.0054 9.78872 15.0516 10.1838 14.3484 10.8871C13.6451 11.5903 13.25 12.5442 13.25 13.5387V16.4892H10.25C10.0511 16.4892 9.86033 16.4102 9.71968 16.2696C9.57903 16.1289 9.50001 15.9381 9.50001 15.7392V8.37647C9.5007 8.1777 9.57965 7.98721 9.71976 7.84622L15.4085 2.15897C15.8313 1.73817 16.4035 1.50193 17 1.50193C17.5965 1.50193 18.1687 1.73817 18.5915 2.15897L24.2803 7.84847C24.4198 7.9889 24.4987 8.17848 24.5 8.37647V15.7392Z" fill="white"/>
<path d="M0.958807 33V24.2727H2.27557V28.0653H6.62642V24.2727H7.94744V33H6.62642V29.1946H2.27557V33H0.958807ZM12.5199 33.1321C11.9063 33.1321 11.3707 32.9915 10.9134 32.7102C10.456 32.429 10.1009 32.0355 9.84801 31.5298C9.59517 31.0241 9.46875 30.4332 9.46875 29.7571C9.46875 29.0781 9.59517 28.4844 9.84801 27.9759C10.1009 27.4673 10.456 27.0724 10.9134 26.7912C11.3707 26.5099 11.9063 26.3693 12.5199 26.3693C13.1335 26.3693 13.669 26.5099 14.1264 26.7912C14.5838 27.0724 14.9389 27.4673 15.1918 27.9759C15.4446 28.4844 15.571 29.0781 15.571 29.7571C15.571 30.4332 15.4446 31.0241 15.1918 31.5298C14.9389 32.0355 14.5838 32.429 14.1264 32.7102C13.669 32.9915 13.1335 33.1321 12.5199 33.1321ZM12.5241 32.0625C12.9219 32.0625 13.2514 31.9574 13.5128 31.7472C13.7741 31.5369 13.9673 31.2571 14.0923 30.9077C14.2202 30.5582 14.2841 30.1733 14.2841 29.7528C14.2841 29.3352 14.2202 28.9517 14.0923 28.6023C13.9673 28.25 13.7741 27.9673 13.5128 27.7543C13.2514 27.5412 12.9219 27.4347 12.5241 27.4347C12.1236 27.4347 11.7912 27.5412 11.527 27.7543C11.2656 27.9673 11.071 28.25 10.9432 28.6023C10.8182 28.9517 10.7557 29.3352 10.7557 29.7528C10.7557 30.1733 10.8182 30.5582 10.9432 30.9077C11.071 31.2571 11.2656 31.5369 11.527 31.7472C11.7912 31.9574 12.1236 32.0625 12.5241 32.0625ZM16.9933 33V26.4545H18.2163V27.5199H18.2972C18.4336 27.1591 18.6566 26.8778 18.9663 26.6761C19.2759 26.4716 19.6467 26.3693 20.0785 26.3693C20.516 26.3693 20.8825 26.4716 21.1779 26.6761C21.4762 26.8807 21.6964 27.1619 21.8384 27.5199H21.9066C22.0629 27.1705 22.3114 26.892 22.6523 26.6847C22.9933 26.4744 23.3995 26.3693 23.8711 26.3693C24.4648 26.3693 24.9492 26.5554 25.3242 26.9276C25.7021 27.2997 25.891 27.8608 25.891 28.6108V33H24.6168V28.7301C24.6168 28.2869 24.4961 27.9659 24.2546 27.767C24.0131 27.5682 23.7248 27.4688 23.3896 27.4688C22.9748 27.4688 22.6523 27.5966 22.4222 27.8523C22.1921 28.1051 22.0771 28.4304 22.0771 28.8281V33H20.8072V28.6491C20.8072 28.294 20.6964 28.0085 20.4748 27.7926C20.2532 27.5767 19.9648 27.4688 19.6097 27.4688C19.3683 27.4688 19.1452 27.5327 18.9407 27.6605C18.739 27.7855 18.5756 27.9602 18.4506 28.1847C18.3285 28.4091 18.2674 28.669 18.2674 28.9645V33H16.9933ZM30.4197 33.1321C29.7749 33.1321 29.2195 32.9943 28.7536 32.7188C28.2905 32.4403 27.9325 32.0497 27.6797 31.5469C27.4297 31.0412 27.3047 30.4489 27.3047 29.7699C27.3047 29.0994 27.4297 28.5085 27.6797 27.9972C27.9325 27.4858 28.2848 27.0866 28.7365 26.7997C29.1911 26.5128 29.7223 26.3693 30.3303 26.3693C30.6996 26.3693 31.0575 26.4304 31.4041 26.5526C31.7507 26.6747 32.0618 26.8665 32.3374 27.1278C32.6129 27.3892 32.8303 27.7287 32.9893 28.1463C33.1484 28.5611 33.228 29.0653 33.228 29.6591V30.1108H28.0249V29.1562H31.9794C31.9794 28.821 31.9112 28.5241 31.7749 28.2656C31.6385 28.0043 31.4467 27.7983 31.1996 27.6477C30.9553 27.4972 30.6683 27.4219 30.3388 27.4219C29.9808 27.4219 29.6683 27.5099 29.4013 27.6861C29.1371 27.8594 28.9325 28.0866 28.7876 28.3679C28.6456 28.6463 28.5746 28.9489 28.5746 29.2756V30.0213C28.5746 30.4588 28.6513 30.831 28.8047 31.1378C28.9609 31.4446 29.1783 31.679 29.4567 31.8409C29.7351 32 30.0604 32.0795 30.4325 32.0795C30.674 32.0795 30.8942 32.0455 31.093 31.9773C31.2919 31.9062 31.4638 31.8011 31.6087 31.6619C31.7536 31.5227 31.8643 31.3509 31.9411 31.1463L33.147 31.3636C33.0504 31.7187 32.8771 32.0298 32.6271 32.2969C32.38 32.5611 32.0689 32.767 31.6939 32.9148C31.3217 33.0597 30.897 33.1321 30.4197 33.1321Z" fill="white"/>
</svg>
