<svg width="207" height="109" viewBox="0 0 207 109" fill="none" xmlns="http://www.w3.org/2000/svg">
<path d="M101.513 43.4626C101.188 46.081 100.874 48.5477 100.576 51.0179C99.7774 57.6358 98.9822 64.2561 98.1905 70.8787C97.573 76.0403 96.9554 81.2031 96.3379 86.3671C96.209 87.4487 95.985 87.7028 94.9263 87.761C93.6065 87.8333 92.2796 87.8986 90.9651 87.9216C90.0829 87.9357 89.9064 87.7098 90.0546 86.8629C91.9532 76.1385 93.8553 65.4141 95.7609 54.6898C96.8195 48.7059 97.8853 42.7238 98.9581 36.7435C99.0841 36.0765 99.023 35.3876 98.7816 34.7532C98.397 33.7386 98.0476 32.71 97.7088 31.6795C97.3701 30.6491 97.5694 30.2803 98.6281 30.0721C100.569 29.6927 102.528 29.5428 104.49 29.4104C105.778 29.3169 106.127 29.5639 106.584 30.7991C107.878 34.2938 109.164 37.7904 110.443 41.2887C114.525 52.4154 118.605 63.5426 122.685 74.6705C122.796 74.9722 122.925 75.2651 123.112 75.7291C123.6 74.5822 124.036 73.5677 124.467 72.5531C129.486 60.6595 134.52 48.7712 139.567 36.8882C140.107 35.6284 139.983 34.4374 139.856 33.1828C139.796 32.5988 139.68 32.0218 139.609 31.4378C139.521 30.6791 139.821 30.2027 140.615 30.0615C142.667 29.6876 144.745 29.467 146.83 29.4016C147.913 29.3716 148.266 29.6963 148.388 30.7549C149.393 39.509 150.397 48.2636 151.398 57.0189C152.425 65.9482 153.457 74.8775 154.496 83.8068C154.581 84.5373 154.661 85.2672 154.738 85.9965C154.826 86.8188 154.45 87.2775 153.64 87.3975C151.492 87.737 149.322 87.9139 147.147 87.9268C146.367 87.9268 145.967 87.6304 145.878 86.8152C145.381 82.2276 144.857 77.6401 144.34 73.0648C143.666 67.0798 142.992 61.0959 142.318 55.1133C141.93 51.669 141.544 48.2242 141.162 44.7788C141.134 44.5247 141.19 44.2495 140.986 44.0007C140.666 44.126 140.657 44.4436 140.56 44.6906C135.055 58.571 129.557 72.4555 124.066 86.3441C123.68 87.3269 123.129 87.8333 122.06 87.821C121.093 87.8086 120.119 87.8545 119.158 87.9268C118.286 87.9939 117.896 87.5351 117.624 86.7888C116.308 83.1469 114.965 79.5157 113.633 75.8791C109.79 65.3818 105.945 54.8862 102.099 44.3924C101.984 44.1101 101.944 43.7713 101.513 43.4626Z" fill="white"/>
<path d="M155.407 23.2087C147.7 14.8275 138.292 10.1376 126.95 9.67181C118.934 9.34186 111.461 11.3516 104.666 15.6374C96.0506 21.0755 90.235 28.7103 87.276 38.4589C84.3329 48.1546 84.9822 57.6915 88.9487 67.0537C88.4705 67.1419 88.3594 66.8261 88.1988 66.6196C82.7167 59.5724 79.6959 51.6218 79.3624 42.6654C78.976 32.2233 81.935 22.8788 88.587 14.8187C95.239 6.75869 103.749 1.92585 114.127 0.401355C116.975 -0.0269503 119.864 -0.112835 122.733 0.145518C131.096 0.932465 138.599 3.94615 145.053 9.42302C149.254 12.945 152.687 17.2925 155.139 22.1959C155.243 22.4059 155.349 22.6176 155.433 22.8347C155.46 22.9052 155.425 23.0005 155.407 23.2087Z" fill="white"/>
<path d="M185.867 88.6949C179.592 88.6226 173.574 87.4598 168.254 83.9609C161.085 79.2481 156.891 72.5378 155.62 64.0684C154.802 58.6145 155.119 53.2117 157.147 48.0242C160.12 40.423 165.667 35.4384 173.203 32.5694C177.33 30.999 181.618 30.265 186.024 30.0409C191.647 29.7568 197.154 30.5138 202.633 31.6466C203.818 31.8936 204.044 32.1759 204.113 33.3493C204.289 36.7211 204.487 40.093 204.653 43.4649C204.711 44.6418 204.635 44.6682 202.888 44.8094C202.006 44.8817 201.996 44.2607 201.897 43.6696C201.293 40.063 199.111 37.6704 195.956 36.0824C192.372 34.2756 188.545 33.7886 184.568 34.0568C181.235 34.2791 178.059 35.0078 175.172 36.7264C170.447 39.5372 167.585 43.6907 166.322 49.0212C164.619 56.2166 164.97 63.2268 168.016 70.0376C171.368 77.5506 177.24 81.7571 185.228 83.2022C191.529 84.342 197.618 83.4069 203.578 81.2966C203.855 81.1995 204.131 81.0972 204.408 80.9984C205.496 80.6155 205.643 80.6826 206.038 81.7395C206.1 81.9053 206.16 82.0694 206.232 82.23C206.925 83.7527 206.927 83.758 205.433 84.4479C200.967 86.5141 196.217 87.5586 191.388 88.305C189.562 88.592 187.715 88.7225 185.867 88.6949Z" fill="white"/>
<path d="M49.7254 31.2774C58.1313 31.2774 66.5372 31.2774 74.943 31.2774C75.7529 31.2774 76.2046 31.5297 76.2699 32.4084C76.5222 35.8067 76.704 39.2086 76.7569 42.6158C76.7657 43.2033 76.7763 43.7927 76.8098 44.3802C76.8381 44.8937 76.584 45.109 76.104 45.2095C74.5054 45.543 74.1878 45.3719 73.752 43.8262C73.3074 42.2382 72.8451 40.6661 72.1146 39.1821C71.0983 37.1177 69.452 35.9391 67.1741 35.6956C63.13 35.2668 59.0718 35.5474 55.0206 35.4891C54.6024 35.4891 54.4453 35.6973 54.463 36.0926C54.4753 36.3573 54.463 36.6219 54.463 36.8866V84.8692C54.463 85.1921 54.4718 85.5185 54.4418 85.8397C54.3359 86.9142 54.0519 87.2512 53.002 87.3994C50.8545 87.738 48.6846 87.9149 46.5106 87.9288C44.9226 87.9288 44.6756 87.68 44.6756 86.0814C44.6756 73.5279 44.6756 60.9732 44.6756 48.4173C44.6756 44.6255 44.702 40.8302 44.7126 37.0419C44.7126 35.438 44.6844 35.4539 43.0822 35.4768C39.9362 35.5297 36.7902 35.4944 33.6477 35.565C29.743 35.6532 27.728 37.1177 26.3358 40.7666C25.8841 41.947 25.4536 43.1451 25.2471 44.3891C25.0707 45.4371 24.3808 45.303 23.6591 45.2395C22.8933 45.1725 22.2334 44.9766 22.2687 44.0238C22.304 43.1134 22.3781 42.2064 22.4363 41.2977C22.6216 38.4252 22.7328 35.5474 23.0786 32.6872C23.2409 31.3586 23.3962 31.2315 24.7707 31.2756C33.0884 31.5156 41.4078 31.4274 49.7254 31.2774Z" fill="white"/>
<path d="M15.5607 68.1002C15.5607 73.5112 15.5607 78.917 15.5607 84.3174C15.5607 85.6601 15.3666 85.9318 14.0715 86.1242C12.014 86.4574 9.93426 86.6343 7.85005 86.6535C6.61493 86.6535 6.36085 86.3712 6.36085 85.1361C6.36085 76.6761 6.36085 68.2155 6.36085 59.7544C6.39066 58.8442 6.29988 57.9341 6.09089 57.0477C5.70094 55.6061 4.77813 54.8792 3.20071 54.8051C2.52702 54.7632 1.85082 54.7886 1.18217 54.8809C0.426985 54.9956 0.181727 54.648 0.0864466 53.9987C-0.0123629 53.3176 -0.209982 52.6154 0.753411 52.3878C2.29378 52.0225 3.83238 51.6485 5.37805 51.3079C7.98356 50.7315 10.6108 50.2692 13.2599 49.9211C14.9802 49.697 15.5537 50.2175 15.5537 51.9855C15.5607 57.3518 15.5631 62.7234 15.5607 68.1002Z" fill="white"/>
<path d="M10.9646 30.0817C15.1305 30.0517 17.419 34.0694 15.3263 37.7183C15.0834 38.1938 14.7179 38.5958 14.2677 38.8829C12.0603 40.1568 9.76831 40.4003 7.48863 39.1634C5.60596 38.1418 4.76784 36.0015 5.25483 33.8824C5.79652 31.5198 7.27337 30.3076 9.9024 30.087C10.2588 30.0606 10.6117 30.0817 10.9646 30.0817Z" fill="white"/>
<path d="M105.431 95.2798H137.273C136.593 96.1973 136 97.0125 135.39 97.8171C135.203 98.0641 134.907 97.9935 134.649 97.9935C125.805 97.9935 116.961 97.9976 108.117 98.0059C107.885 98.023 107.653 97.9755 107.447 97.8687C107.241 97.7618 107.068 97.5998 106.949 97.4007C106.492 96.7178 106.001 96.072 105.431 95.2798Z" fill="white"/>
<path d="M109.091 100.292H133.59C132.884 101.261 132.249 102.143 131.603 103.019C131.427 103.262 131.139 103.234 130.874 103.234H111.85C111.552 103.234 111.245 103.25 111.046 102.98C110.41 102.117 109.784 101.247 109.091 100.292Z" fill="white"/>
<path d="M112.882 105.48H129.821C129.152 106.385 128.586 107.188 127.979 107.95C127.771 108.208 127.388 108.178 127.065 108.178C123.247 108.178 119.429 108.178 115.612 108.178C115.349 108.196 115.086 108.139 114.853 108.014C114.62 107.89 114.428 107.702 114.297 107.472C113.885 106.825 113.403 106.207 112.882 105.48Z" fill="white"/>
</svg>
