<svg width="99" height="52" viewBox="0 0 99 52" fill="none" xmlns="http://www.w3.org/2000/svg">
<path d="M48.6248 20.8187C48.4692 22.073 48.3188 23.2545 48.176 24.4378C47.7934 27.6078 47.4125 30.7789 47.0333 33.9511C46.7375 36.4235 46.4417 38.8965 46.1459 41.37C46.0842 41.8881 45.9768 42.0098 45.4697 42.0377C44.8375 42.0724 44.202 42.1036 43.5723 42.1146C43.1497 42.1214 43.0652 42.0132 43.1362 41.6075C44.0456 36.4705 44.9567 31.3336 45.8695 26.1966C46.3766 23.3303 46.8871 20.4649 47.4009 17.6003C47.4613 17.2808 47.4321 16.9509 47.3164 16.647C47.1322 16.161 46.9648 15.6682 46.8026 15.1747C46.6403 14.6811 46.7358 14.5044 47.2429 14.4047C48.1726 14.223 49.1107 14.1512 50.0506 14.0878C50.6675 14.043 50.8349 14.1613 51.0538 14.7529C51.6736 16.4269 52.2897 18.1018 52.9022 19.7775C54.8574 25.1072 56.812 30.4371 58.766 35.7674C58.8193 35.9119 58.881 36.0522 58.9705 36.2745C59.2047 35.7251 59.4134 35.2391 59.6196 34.7531C62.0239 29.0561 64.4349 23.3616 66.8526 17.6696C67.1113 17.0662 67.0521 16.4957 66.9913 15.8948C66.9625 15.615 66.9067 15.3386 66.8729 15.0589C66.8307 14.6955 66.9743 14.4673 67.3547 14.3996C68.3377 14.2205 69.3327 14.1149 70.3314 14.0835C70.8503 14.0692 71.0194 14.2247 71.0777 14.7318C71.5594 18.925 72.0401 23.1185 72.5196 27.3122C73.0114 31.5894 73.5061 35.8665 74.0037 40.1437C74.0442 40.4936 74.0828 40.8432 74.1195 41.1925C74.1617 41.5864 73.9817 41.8061 73.5938 41.8636C72.5649 42.0262 71.5252 42.111 70.4835 42.1172C70.11 42.1172 69.9181 41.9752 69.8758 41.5847C69.6375 39.3872 69.3865 37.1898 69.1389 34.9982C68.816 32.1314 68.4931 29.2651 68.1703 26.3994C67.9843 24.7497 67.7998 23.0996 67.6167 21.4492C67.6032 21.3275 67.6302 21.1957 67.5322 21.0765C67.3792 21.1365 67.375 21.2887 67.3285 21.407C64.6915 28.0557 62.058 34.7064 59.4278 41.359C59.2427 41.8298 58.979 42.0724 58.4668 42.0664C58.0037 42.0605 57.5371 42.0825 57.0765 42.1172C56.659 42.1493 56.4722 41.9295 56.3421 41.572C55.7116 39.8276 55.0684 38.0882 54.4303 36.3463C52.5895 31.3181 50.7478 26.2907 48.9054 21.2642C48.8504 21.1289 48.831 20.9667 48.6248 20.8187Z" fill="white"/>
<path d="M74.44 11.117C70.7483 7.1024 66.2418 4.85593 60.809 4.6328C56.9694 4.47475 53.3901 5.43741 50.1353 7.49034C46.0083 10.0952 43.2226 13.7522 41.8052 18.4218C40.3955 23.0661 40.7065 27.6342 42.6065 32.1187C42.3774 32.161 42.3242 32.0097 42.2473 31.9108C39.6213 28.5352 38.1744 24.7268 38.0146 20.4367C37.8295 15.435 39.2469 10.9589 42.4332 7.09818C45.6195 3.23742 49.6958 0.922481 54.6671 0.192249C56.0313 -0.0129092 57.4151 -0.0540478 58.789 0.069703C62.7952 0.446651 66.3888 1.89021 69.4805 4.51363C71.4928 6.20067 73.1372 8.28312 74.3115 10.6319C74.3614 10.7324 74.4121 10.8339 74.4527 10.9378C74.4653 10.9716 74.4484 11.0173 74.44 11.117Z" fill="white"/>
<path d="M89.0302 42.4849C86.0248 42.4502 83.1419 41.8932 80.5937 40.2173C77.1597 37.9598 75.1507 34.7456 74.5422 30.6888C74.15 28.0763 74.3022 25.4884 75.2733 23.0036C76.6974 19.3626 79.3546 16.9749 82.9644 15.6007C84.9412 14.8485 86.995 14.4969 89.1054 14.3896C91.799 14.2535 94.4368 14.6161 97.0611 15.1587C97.629 15.277 97.7372 15.4122 97.7702 15.9743C97.8547 17.5894 97.9493 19.2045 98.0288 20.8196C98.0567 21.3834 98.0203 21.3961 97.1836 21.4637C96.761 21.4983 96.7559 21.2008 96.7086 20.9177C96.4196 19.1901 95.3741 18.0441 93.8629 17.2834C92.1464 16.418 90.3132 16.1847 88.4081 16.3132C86.8116 16.4197 85.2903 16.7687 83.9076 17.5919C81.6442 18.9383 80.2733 20.9278 79.6682 23.4811C78.8526 26.9277 79.0208 30.2856 80.4796 33.548C82.0854 37.1467 84.8981 39.1616 88.7242 39.8538C91.7424 40.3998 94.6591 39.9519 97.5141 38.941C97.6468 38.8946 97.7786 38.8455 97.9113 38.7982C98.4328 38.6148 98.5029 38.6469 98.6922 39.1532C98.7218 39.2326 98.7505 39.3112 98.7852 39.3881C99.1174 40.1175 99.1182 40.1201 98.4023 40.4505C96.2632 41.4402 93.988 41.9406 91.6747 42.2981C90.8002 42.4356 89.9154 42.498 89.0302 42.4849Z" fill="white"/>
<path d="M23.8185 14.982C27.8449 14.982 31.8713 14.982 35.8977 14.982C36.2857 14.982 36.502 15.1028 36.5333 15.5237C36.6542 17.1515 36.7412 18.781 36.7666 20.413C36.7708 20.6945 36.7759 20.9768 36.7919 21.2582C36.8055 21.5042 36.6838 21.6073 36.4539 21.6555C35.6881 21.8152 35.536 21.7332 35.3272 20.9928C35.1143 20.2322 34.8928 19.4791 34.5429 18.7683C34.0561 17.7795 33.2676 17.2149 32.1764 17.0983C30.2393 16.8929 28.2954 17.0273 26.3549 16.9994C26.1546 16.9994 26.0793 17.0991 26.0878 17.2884C26.0937 17.4152 26.0878 17.542 26.0878 17.6688V40.6525C26.0878 40.8071 26.092 40.9635 26.0777 41.1173C26.0269 41.632 25.8909 41.7934 25.388 41.8644C24.3593 42.0266 23.3199 42.1114 22.2786 42.118C21.5179 42.118 21.3996 41.9988 21.3996 41.2331C21.3996 35.22 21.3996 29.2062 21.3996 23.192C21.3996 21.3757 21.4123 19.5577 21.4174 17.7431C21.4174 16.9749 21.4038 16.9825 20.6364 16.9935C19.1295 17.0188 17.6225 17.0019 16.1173 17.0357C14.2469 17.078 13.2817 17.7795 12.6149 19.5273C12.3985 20.0927 12.1923 20.6666 12.0934 21.2624C12.0089 21.7645 11.6784 21.7002 11.3327 21.6698C10.9659 21.6377 10.6498 21.5439 10.6667 21.0875C10.6836 20.6514 10.7191 20.217 10.747 19.7817C10.8358 18.4058 10.889 17.0273 11.0547 15.6572C11.1324 15.0208 11.2068 14.96 11.8652 14.9811C15.8493 15.0961 19.8343 15.0538 23.8185 14.982Z" fill="white"/>
<path d="M7.45359 32.6199C7.45359 35.2118 7.45359 37.8011 7.45359 40.3879C7.45359 41.0311 7.36062 41.1613 6.74027 41.2534C5.75473 41.413 4.75852 41.4978 3.76018 41.507C3.16856 41.507 3.04685 41.3717 3.04685 40.7801C3.04685 36.7278 3.04685 32.6752 3.04685 28.6223C3.06113 28.1863 3.01765 27.7503 2.91754 27.3258C2.73075 26.6353 2.28873 26.287 1.53314 26.2515C1.21044 26.2315 0.886544 26.2437 0.566261 26.2879C0.204526 26.3428 0.0870474 26.1763 0.0414079 25.8653C-0.00592186 25.5391 -0.100582 25.2027 0.360884 25.0937C1.09872 24.9187 1.83571 24.7395 2.57609 24.5764C3.82413 24.3003 5.0826 24.0789 6.35149 23.9121C7.17553 23.8048 7.45021 24.0541 7.45021 24.901C7.45359 27.4714 7.45472 30.0444 7.45359 32.6199Z" fill="white"/>
<path d="M5.25205 14.4089C7.2475 14.3946 8.3437 16.319 7.34132 18.0668C7.22495 18.2946 7.04988 18.4872 6.83421 18.6247C5.7769 19.2349 4.67902 19.3515 3.58705 18.759C2.68525 18.2697 2.28379 17.2445 2.51706 16.2294C2.77653 15.0977 3.48394 14.5171 4.74325 14.4115C4.91398 14.3988 5.08301 14.4089 5.25205 14.4089Z" fill="white"/>
<path d="M50.5016 45.639H65.7536C65.4283 46.0785 65.1443 46.469 64.8518 46.8544C64.7623 46.9727 64.6203 46.9389 64.4969 46.9389C60.2609 46.9389 56.0246 46.9409 51.788 46.9448C51.677 46.953 51.566 46.9303 51.4672 46.8791C51.3684 46.8279 51.2858 46.7503 51.2285 46.6549C51.0096 46.3278 50.7746 46.0185 50.5016 45.639Z" fill="white"/>
<path d="M52.2544 48.0402H63.9896C63.6516 48.5042 63.3473 48.9267 63.038 49.346C62.9535 49.4626 62.8157 49.4491 62.6889 49.4491H53.5762C53.4334 49.4491 53.2863 49.4567 53.1908 49.3274C52.8866 48.9141 52.5865 48.4974 52.2544 48.0402Z" fill="white"/>
<path d="M54.0707 50.525H62.1844C61.8641 50.9585 61.5928 51.3431 61.302 51.7082C61.2023 51.8316 61.0189 51.8172 60.8642 51.8172C59.0353 51.8172 57.2063 51.8172 55.3782 51.8172C55.252 51.8259 55.126 51.7988 55.0146 51.739C54.9032 51.6792 54.811 51.5891 54.7485 51.4792C54.5508 51.169 54.32 50.8732 54.0707 50.525Z" fill="white"/>
</svg>
