<svg width="22" height="22" viewBox="0 0 22 22" fill="none" xmlns="http://www.w3.org/2000/svg">
<path d="M9.05882 9.04087V8.14453C8.70648 8.10251 8.34847 8.07615 7.98291 8.07615C3.58102 8.07615 0 11.1994 0 15.0385C0 17.3939 1.34985 19.4782 3.40816 20.7387C2.07909 19.4947 1.26389 17.828 1.26389 15.9983C1.26389 12.2143 4.74384 9.1282 9.05882 9.04005V9.04087Z" fill="white"/>
<path d="M9.2468 19.1792C11.2107 19.1792 12.8127 17.8165 12.8854 16.1194L12.8921 0.959782H16.0678C16.0017 0.648368 15.9658 0.327891 15.9658 0H11.6282L11.6216 15.1596C11.5488 16.8576 9.94676 18.2194 7.98291 18.2194C7.3727 18.2194 6.79743 18.0859 6.29206 17.8544C6.95518 18.6552 8.03109 19.18 9.24775 19.18L9.2468 19.1792Z" fill="white"/>
<path d="M15.9658 15.0393V7.35201C17.6671 8.41724 19.7509 9.04419 22 9.04419V6.10388C20.7012 5.86167 19.5563 5.25284 18.7137 4.40922C17.3544 3.63645 16.3739 2.39986 16.0678 0.958949H12.8921L12.8854 16.1186C12.8127 17.8165 11.2106 19.1783 9.2468 19.1783C8.03014 19.1783 6.95422 18.6544 6.29111 17.8528C5.13018 17.3197 4.33671 16.2594 4.33671 15.0385C4.33671 13.2854 5.97277 11.8585 7.98291 11.8585C8.35792 11.8585 8.71781 11.9128 9.05882 12.0051V9.03925C4.74383 9.1274 1.26389 12.2135 1.26389 15.9975C1.26389 17.828 2.07908 19.4939 3.40815 20.7379C4.7051 21.5321 6.28166 22 7.98291 22C12.3848 22 15.9658 18.8768 15.9658 15.0377V15.0393Z" fill="white"/>
</svg>
