<svg width="23" height="16" viewBox="0 0 23 16" fill="none" xmlns="http://www.w3.org/2000/svg">
<path d="M22.9947 5.6389C23.0464 4.1584 22.7193 2.68898 22.0439 1.36707C21.5857 0.824662 20.9497 0.45862 20.2469 0.33273C17.3398 0.0715852 14.4206 -0.0354495 11.502 0.0120845C8.59392 -0.037607 5.68528 0.0659739 2.78837 0.322387C2.21563 0.425528 1.6856 0.691484 1.26297 1.0878C0.322649 1.9463 0.21817 3.41507 0.11369 4.65628C-0.0378968 6.88794 -0.0378968 9.12715 0.11369 11.3588C0.143916 12.0574 0.248985 12.7509 0.427129 13.4275C0.553105 13.9499 0.80798 14.4332 1.16893 14.8342C1.59444 15.2515 2.13682 15.5326 2.72568 15.641C4.97817 15.9162 7.24778 16.0303 9.51685 15.9823C13.1736 16.034 16.3811 15.9823 20.1738 15.6927C20.7771 15.591 21.3347 15.3095 21.7723 14.8859C22.0648 14.5962 22.2833 14.2416 22.4096 13.8516C22.7833 12.7165 22.9668 11.5286 22.9529 10.3348C22.9947 9.75558 22.9947 6.25951 22.9947 5.6389ZM9.14072 10.9554V4.55284L15.3259 7.76965C13.5915 8.72124 11.3034 9.79696 9.14072 10.9554Z" fill="white"/>
</svg>
